<svg xmlns="http://www.w3.org/2000/svg" xmlns:xlink="http://www.w3.org/1999/xlink" width="500" zoomAndPan="magnify" viewBox="0 0 375 374.999991" height="500" preserveAspectRatio="xMidYMid meet" version="1.0"><defs><clipPath id="6eff2a5ecd"><path d="M 24.398438 76.117188 L 350.648438 76.117188 L 350.648438 375 L 24.398438 375 Z M 24.398438 76.117188 " clip-rule="nonzero"/></clipPath><clipPath id="c66c11e5cd"><path d="M 24.398438 0 L 350.648438 0 L 350.648438 132.75 L 24.398438 132.75 Z M 24.398438 0 " clip-rule="nonzero"/></clipPath></defs><g clip-path="url(#6eff2a5ecd)"><path fill="#5a803d" d="M 217.167969 93.53125 C 211.015625 82.785156 199.65625 76.117188 187.5 76.117188 C 175.339844 76.117188 163.984375 82.785156 157.667969 93.859375 L 30.046875 322.320312 L 28.714844 324.574219 C 25.945312 329.589844 24.476562 335.28125 24.476562 341.027344 C 24.476562 359.761719 39.707031 374.992188 58.441406 374.992188 L 316.558594 374.992188 C 335.292969 374.992188 350.523438 359.761719 350.523438 341.027344 C 350.523438 335.28125 349.054688 329.589844 346.175781 324.359375 Z M 316.558594 361.40625 L 58.441406 361.40625 C 47.203125 361.40625 38.0625 352.261719 38.0625 341.027344 C 38.0625 337.523438 38.917969 334.195312 40.507812 331.339844 L 169.621094 100.269531 C 173.355469 93.761719 180.203125 89.699219 187.5 89.699219 C 194.792969 89.699219 201.640625 93.761719 205.472656 100.488281 L 333.269531 329.304688 L 334.382812 331.136719 C 336.082031 334.195312 336.9375 337.523438 336.9375 341.027344 C 336.9375 352.261719 327.792969 361.40625 316.558594 361.40625 Z M 316.558594 361.40625 " fill-opacity="1" fill-rule="nonzero"/></g><path fill="#5a803d" d="M 201.085938 320.648438 C 201.085938 321.542969 200.996094 322.425781 200.824219 323.300781 C 200.648438 324.175781 200.390625 325.023438 200.050781 325.847656 C 199.710938 326.671875 199.289062 327.457031 198.796875 328.195312 C 198.300781 328.9375 197.734375 329.625 197.105469 330.253906 C 196.476562 330.886719 195.789062 331.449219 195.046875 331.945312 C 194.304688 332.441406 193.523438 332.859375 192.699219 333.199219 C 191.875 333.542969 191.023438 333.800781 190.148438 333.972656 C 189.273438 334.148438 188.390625 334.234375 187.5 334.234375 C 186.605469 334.234375 185.722656 334.148438 184.847656 333.972656 C 183.972656 333.800781 183.125 333.542969 182.300781 333.199219 C 181.476562 332.859375 180.695312 332.441406 179.953125 331.945312 C 179.210938 331.449219 178.523438 330.886719 177.894531 330.253906 C 177.261719 329.625 176.699219 328.9375 176.203125 328.195312 C 175.707031 327.457031 175.289062 326.671875 174.949219 325.847656 C 174.605469 325.023438 174.347656 324.175781 174.175781 323.300781 C 174 322.425781 173.914062 321.542969 173.914062 320.648438 C 173.914062 319.757812 174 318.875 174.175781 318 C 174.347656 317.125 174.605469 316.273438 174.949219 315.449219 C 175.289062 314.625 175.707031 313.84375 176.203125 313.101562 C 176.699219 312.359375 177.261719 311.675781 177.894531 311.042969 C 178.523438 310.414062 179.210938 309.847656 179.953125 309.355469 C 180.695312 308.859375 181.476562 308.441406 182.300781 308.097656 C 183.125 307.757812 183.972656 307.5 184.847656 307.324219 C 185.722656 307.152344 186.605469 307.0625 187.5 307.0625 C 188.390625 307.0625 189.273438 307.152344 190.148438 307.324219 C 191.023438 307.5 191.875 307.757812 192.699219 308.097656 C 193.523438 308.441406 194.304688 308.859375 195.046875 309.355469 C 195.789062 309.847656 196.476562 310.414062 197.105469 311.042969 C 197.734375 311.675781 198.300781 312.359375 198.796875 313.101562 C 199.289062 313.84375 199.710938 314.625 200.050781 315.449219 C 200.390625 316.273438 200.648438 317.125 200.824219 318 C 200.996094 318.875 201.085938 319.757812 201.085938 320.648438 Z M 201.085938 320.648438 " fill-opacity="1" fill-rule="nonzero"/><path fill="#5a803d" d="M 187.5 157.625 C 180.027344 157.625 173.914062 163.738281 173.914062 171.210938 C 173.914062 171.496094 174.0625 171.742188 174.078125 172.027344 L 173.914062 172.027344 L 180.707031 286.6875 L 180.707031 287.09375 C 180.976562 290.761719 183.832031 293.480469 187.5 293.480469 C 191.167969 293.480469 194.019531 290.761719 194.292969 287.09375 L 194.292969 286.6875 L 201.085938 172.027344 L 200.921875 172.027344 C 200.933594 171.742188 201.085938 171.496094 201.085938 171.210938 C 201.085938 163.738281 194.972656 157.625 187.5 157.625 Z M 187.5 157.625 " fill-opacity="1" fill-rule="nonzero"/><g clip-path="url(#c66c11e5cd)"><path fill="#d57e7e" d="M 45.695312 105.1875 Z M 67.765625 115.203125 L 67.898438 115.039062 Z M 71.0625 117.375 C 71.0625 117.375 71.109375 117.3125 71.0625 117.375 Z M 59.269531 112.007812 Z M 39.074219 102.46875 Z M 39.207031 102.386719 C 39.207031 102.46875 39.207031 102.46875 39.089844 102.46875 C 39.101562 102.613281 39.179688 102.679688 39.320312 102.667969 C 39.335938 102.550781 39.207031 102.484375 39.207031 102.386719 Z M 56.945312 117.820312 C 56.945312 117.820312 56.929688 117.835938 56.945312 117.820312 Z M 29.042969 98.152344 L 29.140625 97.972656 C 29.097656 98.027344 29.066406 98.089844 29.042969 98.152344 Z M 74.242188 119.058594 C 74.230469 119.105469 74.230469 119.15625 74.242188 119.203125 Z M 89.195312 129.8125 L 89.066406 129.910156 C 89.066406 129.910156 89.148438 129.910156 89.164062 129.910156 C 89.179688 129.910156 89.179688 129.828125 89.195312 129.8125 Z M 78.308594 122.003906 C 78.175781 121.847656 78.011719 121.738281 77.816406 121.675781 L 77.714844 121.890625 Z M 89.527344 130.242188 C 89.277344 129.992188 89.410156 129.730469 89.3125 129.582031 C 89.324219 129.613281 89.324219 129.648438 89.3125 129.679688 C 89.3125 129.679688 89.3125 129.78125 89.179688 129.679688 C 89.027344 129.632812 88.890625 129.558594 88.769531 129.449219 L 88.882812 129.21875 C 88.457031 129.550781 87.746094 127.867188 87.46875 127.722656 C 87.300781 127.292969 86.777344 127.472656 86.480469 127.144531 C 86.183594 126.816406 86.347656 126.683594 86.148438 126.355469 C 85.953125 126.023438 86.148438 126.648438 85.953125 126.585938 L 85.671875 126.058594 C 85.933594 126.15625 85.871094 125.957031 85.851562 125.84375 C 85.507812 125.628906 85.113281 124.921875 84.78125 125.316406 C 84.371094 124.855469 84.453125 124.671875 84.253906 124.558594 C 84.058594 124.441406 84.386719 124.820312 84.355469 124.902344 C 84.238281 124.609375 84.222656 124.902344 84.355469 124.902344 C 83.957031 124.902344 83.152344 123.257812 82.839844 123.765625 C 82.59375 124.097656 82.527344 124.507812 82.214844 124.609375 L 82.214844 124.378906 L 81.917969 124.378906 C 81.832031 124.277344 81.832031 124.179688 81.917969 124.082031 C 81.472656 124.082031 81.078125 123.636719 80.664062 123.371094 L 80.664062 124.609375 C 80.402344 124.195312 79.988281 123.40625 79.757812 123.703125 L 79.757812 123.257812 C 79.347656 122.269531 79.117188 123.257812 78.933594 122.960938 L 78.738281 122.417969 L 79.101562 122.597656 C 78.882812 122.308594 78.707031 121.996094 78.574219 121.660156 C 78.480469 121.734375 78.371094 121.773438 78.25 121.773438 C 78.132812 121.773438 78.023438 121.734375 77.929688 121.660156 C 77.601562 121.429688 77.171875 121.558594 76.792969 120.886719 L 76.464844 121.199219 L 76.136719 120.769531 L 76.28125 120.472656 C 76.695312 120.6875 77.550781 120.96875 78.113281 121.214844 L 78.113281 121.082031 C 77.78125 120.917969 77.335938 120.886719 77.140625 120.753906 C 76.941406 120.621094 76.957031 120.191406 77.238281 120.09375 L 76.910156 120.277344 C 76.097656 119.996094 75.398438 119.542969 74.816406 118.910156 L 74.816406 119.105469 C 74.554688 119.105469 74.273438 119.105469 74.339844 118.792969 C 73.675781 118.449219 73.164062 117.949219 72.808594 117.292969 L 72.542969 117.605469 C 72.414062 117.507812 72.445312 116.882812 72.148438 117.34375 L 71.621094 117.34375 C 71.425781 117.226562 71.210938 117.34375 71.09375 117.046875 C 70.714844 116.683594 70.945312 117.375 70.535156 116.933594 C 70.535156 116.601562 70.140625 117.277344 69.925781 117.078125 L 69.925781 116.453125 C 69.613281 115.945312 69.28125 116.453125 68.640625 116.109375 C 68.515625 115.921875 68.476562 115.71875 68.523438 115.5 C 68.566406 115.28125 68.683594 115.109375 68.871094 114.988281 C 68.359375 115.316406 68.589844 115.234375 68.097656 115.269531 C 68.097656 115.054688 68.195312 115.019531 68.359375 114.90625 C 68.128906 114.511719 68.082031 114.90625 67.832031 114.90625 C 67.585938 115.21875 67.222656 115.761719 67.125 115.746094 L 67.125 115.894531 C 66.953125 115.949219 66.78125 115.945312 66.613281 115.886719 C 66.441406 115.832031 66.304688 115.726562 66.203125 115.582031 L 66.300781 115.398438 L 65.921875 115.398438 L 66.019531 115.152344 L 65.527344 115.300781 L 65.527344 115.398438 C 65.265625 115.355469 65.039062 115.238281 64.851562 115.054688 L 64.851562 114.921875 C 64.457031 114.246094 63.714844 114.527344 63.007812 114.246094 L 63.238281 114.015625 C 63.121094 113.652344 62.972656 114.394531 62.761719 114.132812 L 62.890625 113.800781 C 62.445312 114.097656 62.628906 113.554688 62.53125 113.308594 L 62.398438 113.769531 L 62.132812 113.539062 C 61.835938 113.226562 62.132812 112.894531 62.332031 112.699219 L 61.9375 112.914062 L 62.066406 112.515625 C 61.671875 112.863281 61.921875 112.371094 61.507812 112.515625 C 61.507812 112.371094 61.65625 112.320312 61.589844 112.203125 L 60.832031 112.484375 L 61.246094 112.484375 L 60.949219 113.011719 C 60.421875 113.273438 60.535156 112.75 60.238281 112.78125 L 60.46875 112.78125 C 60.042969 112.78125 60.140625 112.5 59.992188 112.269531 C 59.992188 112.402344 59.992188 112.601562 59.84375 112.601562 C 59.695312 112.601562 59.84375 112.386719 59.84375 112.269531 C 59.648438 112.617188 59.300781 112.683594 59.136719 112.402344 C 59.148438 112.261719 59.195312 112.128906 59.269531 112.007812 C 59.1875 112.007812 59.101562 112.121094 59.039062 112.007812 L 59.300781 111.644531 L 58.90625 111.925781 C 58.824219 111.742188 58.476562 111.925781 58.625 111.675781 L 58.757812 111.675781 L 57.753906 111.066406 L 57.902344 110.738281 C 57.589844 111.132812 57.421875 110.292969 57.175781 110.871094 C 57.175781 110.476562 56.304688 110.707031 56.730469 110.144531 C 56.074219 109.765625 55.414062 110.144531 54.722656 109.488281 C 54.722656 108.8125 53.800781 108.582031 53.289062 108.269531 C 52.136719 107.988281 51.363281 107.855469 50.226562 107.511719 C 49.945312 106.472656 48.578125 107 48.019531 106.242188 L 47.6875 106.457031 C 47.457031 105.765625 46.484375 105.996094 46.042969 105.21875 C 45.921875 105.253906 45.800781 105.253906 45.679688 105.21875 C 45.679688 105.21875 45.679688 105.335938 45.679688 105.515625 C 45.546875 105.304688 45.101562 105.285156 45.316406 104.925781 C 45.515625 104.5625 44.675781 104.824219 44.625 104.414062 L 44.542969 104.859375 L 44.277344 104.578125 L 44.410156 104.578125 C 42.46875 104.726562 42.402344 103.144531 40.589844 103.261719 C 40.984375 102.914062 40.195312 103.359375 40.40625 102.863281 C 40.40625 102.109375 39.683594 102.683594 39.320312 102.699219 L 38.84375 102.402344 C 39.4375 101.941406 38.234375 102.71875 38.761719 102.402344 C 37.640625 101.300781 35.679688 100.921875 34.230469 99.964844 L 34.230469 100.148438 C 33.867188 99.933594 33.277344 99.882812 33.109375 99.488281 C 32.945312 99.09375 32.269531 99.488281 32.140625 99.488281 C 31.679688 99.585938 31.644531 98.910156 31.777344 99.011719 C 31.382812 98.910156 30.789062 99.308594 30.425781 98.847656 C 30.425781 98.253906 28.777344 98.699219 29.125 98.121094 C 28.695312 97.414062 27.789062 97.808594 27.296875 97.132812 L 25.089844 98.21875 L 24.511719 100.328125 L 24.941406 102.453125 L 28.234375 103.671875 L 30.492188 105.5 L 36.785156 108.300781 L 37.441406 108.085938 C 38.285156 109.4375 40.277344 109.320312 41.3125 110.492188 L 41.527344 110.128906 C 41.90625 110.292969 41.773438 110.507812 41.824219 110.625 C 45.332031 111.933594 48.707031 113.519531 51.953125 115.382812 C 52.136719 115.777344 53.109375 116.074219 53.222656 116.453125 C 54.410156 116.539062 55.507812 116.894531 56.515625 117.523438 L 57.027344 117.671875 C 57.046875 117.710938 57.046875 117.75 57.027344 117.789062 C 57.734375 117.789062 58.410156 118.445312 59.003906 118.910156 C 62.792969 120.820312 66.679688 121.839844 70.222656 124.195312 C 71.6875 125.660156 74.140625 125.84375 75.921875 127.292969 C 77.410156 128.328125 79.027344 129.078125 80.78125 129.550781 L 80.515625 128.875 C 82.164062 129.402344 82.625 130.191406 84.105469 130.519531 L 83.992188 130.519531 C 84.125 130.71875 84.734375 129.761719 86.214844 132.019531 C 86.214844 132.019531 86.332031 132.019531 86.429688 132.152344 L 86.035156 131.773438 C 86.324219 131.714844 86.617188 131.714844 86.90625 131.773438 C 86.933594 131.859375 86.933594 131.949219 86.90625 132.035156 L 87.648438 132.300781 L 87.648438 132.695312 C 87.945312 132.695312 88.144531 131.988281 88.570312 132.695312 C 88.570312 132.152344 88.984375 132.5625 89.015625 132.316406 C 89.011719 132.410156 89.011719 132.503906 89.015625 132.597656 C 89.378906 132.710938 90.085938 132.910156 90.351562 132.761719 C 89.933594 132.066406 89.582031 131.34375 89.296875 130.585938 C 89.824219 130.832031 89.542969 130.488281 89.527344 130.308594 Z M 86.890625 131.886719 C 86.792969 132.167969 86.839844 132.117188 86.890625 132.019531 Z M 80.515625 123.636719 L 80.515625 123.371094 Z M 85.984375 126.140625 C 85.769531 125.976562 85.738281 125.992188 85.738281 126.140625 C 85.820312 126.171875 85.902344 126.171875 85.984375 126.140625 Z M 89.015625 132.726562 C 89.132812 132.726562 89.132812 132.726562 89.113281 132.546875 L 88.867188 132.546875 C 88.867188 132.546875 88.964844 132.613281 89.015625 132.679688 Z M 89.527344 130.355469 L 89.625 130.242188 C 89.542969 130.125 89.511719 130.242188 89.527344 130.308594 Z M 91.550781 85.652344 L 91.71875 85.519531 Z M 92.671875 87.449219 C 92.671875 87.449219 92.738281 87.429688 92.671875 87.480469 Z M 87.535156 82.949219 L 87.535156 82.984375 Z M 78.871094 75.042969 Z M 78.984375 75.042969 C 78.984375 75.042969 78.984375 75.042969 78.871094 75.042969 C 78.753906 75.042969 78.871094 75.210938 78.871094 75.210938 C 78.871094 75.210938 78.871094 75.0625 78.953125 74.980469 Z M 83.414062 87.746094 C 83.414062 87.746094 83.367188 87.695312 83.382812 87.679688 Z M 74.355469 71.503906 L 74.503906 71.355469 Z M 93.957031 88.945312 L 93.859375 88.945312 Z M 98.71875 97.824219 L 98.601562 97.824219 Z M 95.242188 91.382812 C 95.242188 91.382812 95.242188 91.203125 95.078125 91.121094 L 94.894531 91.285156 Z M 98.785156 97.757812 C 98.785156 97.757812 98.699219 97.757812 98.683594 97.757812 C 98.683594 97.757812 98.535156 97.609375 98.519531 97.5625 L 98.683594 97.378906 C 98.273438 97.644531 98.570312 96.277344 98.453125 96.144531 C 98.339844 96.011719 98.125 95.929688 98.089844 95.667969 C 98.058594 95.402344 98.207031 95.289062 98.238281 95.023438 C 98.273438 94.761719 98.074219 95.253906 97.992188 95.207031 L 97.992188 94.777344 C 98.109375 94.777344 98.15625 94.695312 98.207031 94.613281 C 98.257812 94.53125 98.207031 93.855469 97.746094 94.167969 C 97.746094 93.789062 97.746094 93.65625 97.746094 93.542969 C 97.730469 93.648438 97.695312 93.746094 97.648438 93.839844 C 97.648438 93.589844 97.648438 93.839844 97.648438 93.839844 C 97.367188 93.839844 97.648438 92.519531 97.1875 92.898438 L 97.1875 92.816406 C 96.871094 93.097656 96.640625 93.425781 96.394531 93.507812 L 96.394531 93.3125 L 96.179688 93.3125 C 96.207031 93.214844 96.261719 93.136719 96.34375 93.082031 C 96.066406 93.082031 96.015625 92.703125 95.867188 92.488281 L 95.292969 93.492188 C 95.292969 93.148438 95.40625 92.503906 95.125 92.734375 L 95.292969 92.390625 C 95.472656 91.566406 94.863281 92.390625 94.878906 92.125 L 95.011719 91.679688 L 95.160156 91.84375 C 95.117188 91.59375 95.117188 91.339844 95.160156 91.089844 C 94.996094 91.21875 94.832031 91.234375 94.730469 91.089844 C 94.632812 90.941406 94.285156 91.003906 94.335938 90.460938 L 93.988281 90.710938 L 93.988281 90.59375 L 94.222656 90.347656 C 94.488281 90.574219 94.769531 90.789062 95.0625 90.988281 L 95.160156 90.875 C 95.027344 90.742188 94.765625 90.710938 94.699219 90.59375 C 94.730469 90.355469 94.851562 90.179688 95.0625 90.066406 L 94.746094 90.214844 C 94.34375 89.941406 94.105469 89.5625 94.039062 89.078125 L 94.039062 89.242188 C 93.875 89.242188 93.726562 89.242188 93.875 88.980469 C 93.582031 88.613281 93.480469 88.203125 93.578125 87.746094 L 93.265625 87.992188 C 93.265625 87.992188 93.546875 87.398438 93.132812 87.777344 L 92.871094 87.777344 C 92.871094 87.679688 92.589844 87.777344 92.65625 87.53125 C 92.65625 87.21875 92.410156 87.777344 92.34375 87.414062 C 92.277344 87.050781 91.929688 87.695312 91.882812 87.53125 L 92.160156 87.035156 C 92.160156 86.609375 91.78125 87.035156 91.503906 86.722656 C 91.570312 86.316406 91.792969 86.019531 92.160156 85.832031 C 91.683594 86.082031 91.867188 86.015625 91.535156 86.046875 C 91.617188 85.90625 91.730469 85.808594 91.882812 85.75 C 91.882812 85.4375 91.652344 85.75 91.550781 85.75 C 91.296875 86 91.023438 86.226562 90.730469 86.425781 L 90.730469 86.558594 C 90.464844 86.558594 90.285156 86.558594 90.285156 86.292969 L 90.433594 86.144531 L 90.21875 86.144531 L 90.382812 85.964844 L 90.085938 85.652344 C 90.085938 85.652344 89.804688 85.554688 89.804688 85.371094 L 89.90625 85.273438 C 89.90625 84.714844 89.363281 84.945312 89.03125 84.695312 L 89.277344 84.515625 C 89.378906 84.21875 88.933594 84.8125 88.917969 84.515625 L 89.164062 84.253906 C 88.734375 84.5 89.164062 84.054688 89.164062 83.855469 L 88.867188 84.234375 L 88.867188 84.023438 C 88.867188 83.773438 89.179688 83.511719 89.378906 83.363281 L 89.015625 83.527344 L 89.277344 83.214844 C 88.882812 83.476562 89.277344 83.082031 88.949219 83.214844 C 89.046875 83.082031 89.148438 83.050781 89.148438 82.96875 L 88.539062 83.179688 L 88.835938 83.179688 L 88.40625 83.609375 C 87.960938 83.808594 88.273438 83.378906 88.058594 83.414062 L 88.257812 83.414062 C 87.996094 83.414062 88.160156 83.179688 88.160156 83 C 88.160156 83.097656 88.042969 83.265625 87.929688 83.265625 C 87.8125 83.265625 88.042969 83.082031 88.042969 83 C 87.765625 83.28125 87.5 83.3125 87.535156 83 L 87.648438 82.902344 C 87.648438 82.902344 87.484375 82.902344 87.5 82.902344 L 87.847656 82.589844 L 87.46875 82.820312 C 87.46875 82.671875 87.1875 82.820312 87.46875 82.621094 L 87.105469 82.128906 L 87.351562 81.863281 C 86.957031 82.175781 87.238281 81.484375 86.824219 81.945312 C 86.972656 81.632812 86.332031 81.8125 86.824219 81.351562 C 86.578125 81.039062 85.96875 81.351562 85.835938 80.792969 C 86.117188 80.25 85.640625 80.070312 85.457031 79.804688 C 84.847656 79.558594 84.421875 79.441406 83.8125 79.164062 C 84.105469 78.304688 82.9375 78.71875 82.96875 78.109375 L 82.65625 78.257812 C 82.824219 77.695312 82.097656 77.878906 82.164062 77.25 C 82 77.25 81.933594 77.25 81.917969 77.25 C 81.898438 77.25 81.917969 77.335938 81.75 77.5 C 81.75 77.316406 81.503906 77.300781 81.75 77.003906 C 82.046875 76.707031 81.390625 77.003906 81.554688 76.578125 L 81.289062 76.9375 L 81.191406 76.742188 L 81.289062 76.742188 C 79.972656 76.839844 80.648438 75.539062 79.429688 75.621094 C 79.839844 75.359375 79.148438 75.703125 79.429688 75.308594 C 79.710938 74.914062 79.050781 75.144531 78.804688 75.160156 L 78.621094 74.914062 C 79.214844 74.550781 78.078125 75.160156 78.621094 74.914062 C 78.40625 74.023438 77.320312 73.675781 76.808594 72.886719 L 76.726562 73.035156 C 76.578125 72.855469 76.234375 72.820312 76.300781 72.492188 C 76.367188 72.160156 75.722656 72.492188 75.65625 72.492188 C 75.3125 72.492188 75.65625 72.03125 75.65625 72.113281 C 75.65625 72.195312 74.898438 72.328125 74.867188 71.949219 C 75.195312 71.46875 73.929688 71.816406 74.355469 71.355469 C 74.355469 70.777344 73.632812 71.089844 73.632812 70.53125 L 71.71875 71.386719 L 70.417969 73.035156 L 69.726562 74.765625 L 71.375 75.785156 L 71.984375 77.300781 L 74.785156 79.625 L 75.292969 79.460938 C 75.292969 80.5625 76.5625 80.496094 76.710938 81.453125 L 77.007812 81.171875 C 77.171875 81.304688 77.007812 81.46875 77.007812 81.566406 C 78.652344 82.703125 80.085938 84.066406 81.308594 85.652344 C 81.308594 85.980469 81.734375 86.230469 81.636719 86.523438 C 82.328125 86.574219 82.878906 86.882812 83.285156 87.449219 L 83.53125 87.578125 C 84.023438 87.578125 84.125 88.140625 84.304688 88.5 C 85.953125 90.148438 87.914062 90.972656 89.113281 92.933594 C 89.410156 94.117188 90.910156 94.285156 91.386719 95.503906 C 91.257812 95.945312 93.214844 97.378906 93.496094 97.378906 L 93.644531 96.820312 C 94.453125 97.265625 94.402344 97.921875 95.292969 98.152344 L 95.191406 98.152344 C 95.191406 98.320312 96.015625 97.542969 95.949219 99.390625 C 95.949219 99.390625 96.066406 99.390625 96.03125 99.488281 L 96.03125 99.125 C 96.214844 99.125 96.460938 99.027344 96.609375 99.125 C 96.578125 99.203125 96.535156 99.277344 96.476562 99.339844 L 96.839844 99.570312 L 96.707031 99.882812 C 96.921875 99.882812 97.351562 99.308594 97.332031 99.882812 C 97.566406 99.457031 97.648438 99.800781 97.796875 99.585938 L 97.695312 99.816406 C 97.9375 99.980469 98.203125 100.03125 98.488281 99.964844 C 98.488281 99.40625 98.539062 98.851562 98.636719 98.300781 C 98.75 98.597656 98.734375 98.300781 98.800781 98.152344 L 98.699219 98.152344 C 98.636719 98.023438 98.785156 97.808594 98.785156 97.691406 Z M 96.230469 99.585938 C 96.097656 99.636719 96.164062 99.605469 96.230469 99.519531 Z M 95.933594 92.734375 L 96.066406 92.519531 Z M 98.191406 94.761719 C 98.234375 94.800781 98.277344 94.800781 98.320312 94.761719 C 98.257812 94.597656 98.222656 94.628906 98.191406 94.695312 Z M 97.300781 100.148438 C 97.300781 100.148438 97.398438 100.148438 97.449219 100 L 97.332031 100 C 97.332031 100 97.300781 100.015625 97.300781 100.082031 Z M 98.71875 98.21875 L 98.832031 98.136719 C 98.792969 98.121094 98.753906 98.125 98.71875 98.152344 Z M 112.042969 20.804688 Z M 123.34375 44.917969 L 123.558594 44.917969 Z M 124.59375 49.070312 C 124.59375 49.070312 124.59375 49.050781 124.511719 49.070312 Z M 118.613281 36.121094 C 118.613281 36.121094 118.566406 36.121094 118.53125 36.121094 Z M 108.519531 13.6875 Z M 108.683594 13.6875 C 108.683594 13.804688 108.566406 13.6875 108.535156 13.6875 C 108.4375 13.792969 108.4375 13.898438 108.535156 14 C 108.683594 13.96875 108.519531 13.785156 108.648438 13.703125 Z M 113.03125 39.054688 L 113 39.070312 Z M 103.28125 2.816406 L 103.476562 2.816406 C 103.398438 2.8125 103.320312 2.828125 103.246094 2.867188 Z M 125.960938 52.710938 L 125.828125 52.710938 Z M 131.066406 72.277344 L 130.902344 72.277344 C 130.9375 72.292969 130.96875 72.292969 131 72.277344 Z M 127.328125 58.046875 C 127.308594 57.824219 127.242188 57.613281 127.132812 57.421875 L 126.902344 57.421875 Z M 131.132812 72.226562 C 131.132812 72.226562 131.132812 72.226562 131.019531 72.226562 C 130.902344 72.226562 130.902344 72.226562 130.886719 72.226562 C 130.789062 72.078125 130.730469 71.910156 130.707031 71.734375 L 130.9375 71.636719 C 130.390625 71.636719 130.9375 69.722656 130.753906 69.394531 C 130.902344 68.933594 130.375 68.6875 130.34375 68.226562 C 130.308594 67.765625 130.523438 67.746094 130.589844 67.335938 C 130.65625 66.925781 130.359375 67.535156 130.261719 67.335938 L 130.375 66.710938 C 130.523438 66.972656 130.589844 66.710938 130.65625 66.710938 C 130.523438 66.265625 130.65625 65.425781 130.128906 65.492188 C 130.128906 64.832031 130.292969 64.75 130.210938 64.484375 C 130.210938 64.601562 130.210938 64.800781 130.0625 64.847656 C 130.160156 64.535156 129.964844 64.847656 129.964844 64.847656 C 129.601562 64.601562 129.964844 62.691406 129.46875 62.839844 L 129.570312 62.839844 C 129.15625 62.921875 128.84375 63.21875 128.53125 63.070312 L 128.628906 62.824219 L 128.367188 62.65625 C 128.367188 62.445312 128.546875 62.476562 128.597656 62.460938 C 128.25 62.128906 128.21875 61.488281 128.054688 60.996094 L 127.261719 61.949219 C 127.261719 61.4375 127.476562 60.5 127.113281 60.550781 L 127.34375 60.171875 C 127.640625 59.066406 126.816406 59.726562 126.867188 59.3125 L 127.066406 58.738281 L 127.230469 59.148438 C 127.238281 58.761719 127.296875 58.382812 127.410156 58.011719 C 127.214844 58.011719 126.984375 57.882812 126.882812 57.585938 C 126.785156 57.289062 126.339844 56.957031 126.457031 56.136719 L 125.996094 56.136719 L 125.996094 55.542969 L 126.308594 55.410156 C 126.488281 55.886719 127 56.746094 127.277344 57.355469 L 127.425781 57.355469 C 127.261719 56.992188 126.949219 56.628906 126.882812 56.382812 C 126.816406 56.136719 127.066406 55.789062 127.378906 55.921875 L 126.984375 55.820312 C 126.511719 55.011719 126.246094 54.140625 126.191406 53.203125 L 126.078125 53.382812 C 125.878906 53.171875 125.679688 52.957031 125.894531 52.773438 C 125.589844 52.03125 125.5 51.261719 125.632812 50.46875 L 125.238281 50.46875 C 125.238281 50.289062 125.617188 49.808594 125.089844 49.957031 L 124.777344 49.679688 C 124.777344 49.449219 124.445312 49.398438 124.546875 49.070312 C 124.546875 48.492188 124.230469 49.199219 124.183594 48.542969 C 124.363281 48.261719 123.640625 48.542969 123.605469 48.230469 L 124 47.734375 C 124 47.09375 123.523438 47.242188 123.195312 46.515625 C 123.207031 46.285156 123.300781 46.097656 123.476562 45.953125 C 123.652344 45.804688 123.855469 45.746094 124.082031 45.773438 C 123.472656 45.675781 123.722656 45.773438 123.308594 45.445312 C 123.472656 45.296875 123.523438 45.328125 123.753906 45.347656 C 123.753906 44.867188 123.472656 45.179688 123.359375 44.902344 C 122.964844 44.902344 122.335938 45.132812 122.273438 45.050781 L 122.273438 45.214844 C 121.898438 45.011719 121.722656 44.699219 121.746094 44.277344 L 121.925781 44.277344 L 121.679688 43.945312 L 121.695312 43.8125 L 121.398438 43.304688 L 121.398438 43.402344 C 121.210938 43.183594 121.105469 42.933594 121.085938 42.644531 L 121.21875 42.644531 C 121.332031 41.804688 120.558594 41.492188 120.179688 40.734375 L 120.492188 40.734375 C 120.640625 40.355469 120.046875 40.832031 120.046875 40.453125 L 120.359375 40.304688 C 119.816406 40.222656 120.359375 39.910156 120.359375 39.648438 L 119.980469 39.925781 L 119.980469 39.53125 C 119.980469 39.070312 120.410156 39.054688 120.65625 39.003906 L 120.214844 38.890625 L 120.558594 38.675781 C 120.03125 38.675781 120.558594 38.445312 120.164062 38.199219 C 120.296875 38.117188 120.410156 38.199219 120.425781 38.015625 L 119.636719 37.6875 L 120.046875 37.882812 L 119.472656 38.082031 C 118.894531 37.917969 119.324219 37.589844 119.058594 37.390625 L 119.308594 37.503906 C 118.976562 37.144531 119.207031 37.011719 119.226562 36.730469 C 119.226562 36.847656 119.058594 37.027344 118.910156 36.894531 C 118.761719 36.765625 119.078125 36.730469 119.09375 36.601562 C 118.699219 36.730469 118.382812 36.515625 118.433594 36.171875 L 118.582031 36.171875 C 118.582031 36.171875 118.382812 36.171875 118.417969 35.972656 L 118.863281 35.859375 L 118.367188 35.859375 C 118.367188 35.644531 118.023438 35.5625 118.367188 35.464844 L 118.484375 35.464844 L 118.089844 34.246094 L 118.402344 34.097656 C 117.90625 34.097656 118.300781 33.386719 117.757812 33.667969 C 117.957031 33.304688 117.148438 32.894531 117.839844 32.746094 C 117.5625 31.953125 116.769531 31.824219 116.671875 30.753906 C 117.066406 30.191406 116.507812 29.351562 116.292969 28.726562 C 115.566406 27.65625 115.023438 26.996094 114.332031 25.875 C 114.777344 24.839844 113.292969 24.230469 113.378906 23.242188 L 112.882812 23.058594 C 113.128906 22.351562 112.207031 21.808594 112.355469 20.886719 C 112.238281 20.835938 112.132812 20.765625 112.042969 20.671875 C 112.042969 20.671875 112.042969 20.769531 111.828125 20.871094 C 111.828125 20.605469 111.515625 20.277344 111.910156 20.128906 C 112.289062 19.996094 111.449219 19.585938 111.679688 19.222656 L 111.335938 19.519531 L 111.234375 19.105469 L 111.351562 19.105469 C 109.703125 17.804688 110.675781 16.488281 109.160156 15.253906 C 109.6875 15.253906 108.78125 15.039062 109.257812 14.808594 C 109.6875 14.148438 108.796875 14.117188 108.5 13.867188 L 108.519531 13.867188 L 108.320312 13.257812 C 109.078125 13.257812 107.628906 13.078125 108.320312 13.160156 C 108.121094 11.511719 106.804688 9.71875 106.261719 7.890625 L 106.0625 8.234375 C 105.898438 7.773438 105.472656 7.3125 105.570312 6.867188 C 105.667969 6.425781 104.863281 6.324219 104.777344 6.191406 C 104.351562 5.945312 104.777344 5.386719 104.777344 5.550781 C 104.53125 5.1875 103.824219 5.074219 103.824219 4.429688 C 104.25 4.019531 102.671875 3.164062 103.246094 2.898438 C 103.347656 2.027344 102.359375 1.679688 102.40625 0.757812 L 102.507812 0.757812 L 100.019531 0 L 98.257812 1.285156 L 97.25 3.292969 L 99.144531 6.71875 L 99.773438 9.882812 L 103.066406 16.734375 L 103.726562 17.03125 C 103.542969 18.679688 105.191406 20.09375 105.289062 21.808594 L 105.683594 21.675781 C 105.882812 22.089844 105.683594 22.15625 105.683594 22.285156 C 107.644531 25.910156 109.324219 29.660156 110.726562 33.535156 C 110.609375 33.980469 111.203125 34.9375 111.054688 35.296875 C 111.933594 36.257812 112.570312 37.355469 112.964844 38.59375 L 113.261719 39.105469 C 113.230469 39.121094 113.195312 39.121094 113.164062 39.105469 C 113.757812 39.566406 113.839844 40.652344 114.019531 41.441406 C 115.816406 45.757812 118.253906 49.429688 119.585938 53.910156 C 119.816406 56.152344 121.679688 58.078125 122.15625 60.5 C 122.621094 62.410156 123.359375 64.207031 124.378906 65.886719 L 124.609375 65.144531 C 125.566406 66.792969 125.449219 67.765625 126.457031 69.066406 L 126.324219 69.066406 C 126.324219 69.328125 127.394531 69.066406 127.148438 71.898438 C 127.148438 71.980469 127.277344 71.898438 127.230469 72.160156 L 127.328125 71.636719 C 127.558594 71.816406 127.871094 71.929688 128.035156 72.246094 C 128.011719 72.34375 127.953125 72.410156 127.855469 72.441406 L 128.285156 73.199219 L 128.101562 73.578125 C 128.367188 73.742188 128.941406 73.363281 128.878906 74.171875 C 129.207031 73.726562 129.273438 74.371094 129.46875 74.171875 C 129.414062 74.25 129.363281 74.332031 129.320312 74.417969 C 129.550781 74.78125 129.980469 75.457031 130.292969 75.539062 C 130.394531 74.679688 130.574219 73.839844 130.835938 73.019531 C 130.953125 73.613281 130.953125 73.148438 131.050781 73.019531 L 130.917969 73.019531 C 130.855469 72.589844 131.132812 72.476562 131.132812 72.277344 Z M 127.839844 72.34375 C 127.65625 72.476562 127.722656 72.476562 127.824219 72.476562 Z M 128.085938 60.976562 L 128.265625 60.765625 Z M 130.855469 66.972656 C 130.855469 66.675781 130.738281 66.695312 130.6875 66.757812 C 130.691406 66.875 130.738281 66.960938 130.835938 67.023438 Z M 129.207031 74.433594 C 129.207031 74.582031 129.320312 74.433594 129.386719 74.433594 L 129.15625 74.121094 C 129.15625 74.269531 129.109375 74.386719 129.109375 74.484375 Z M 131.117188 72.902344 L 131.265625 72.902344 C 131.265625 72.902344 131.050781 72.902344 131.019531 72.953125 Z M 169.988281 47.769531 Z M 170.121094 50.089844 C 170.121094 50.089844 170.203125 50.074219 170.121094 50.074219 Z M 167.816406 42.824219 Z M 163.996094 30.339844 Z M 164.144531 30.339844 C 164.144531 30.339844 164.027344 30.339844 163.996094 30.339844 C 163.960938 30.339844 163.996094 30.488281 163.996094 30.523438 C 163.996094 30.554688 163.996094 30.457031 164.078125 30.40625 Z M 161.769531 24.328125 L 161.96875 24.328125 Z M 170.648438 52.066406 L 170.5 52.066406 Z M 170.550781 63.136719 L 170.402344 63.136719 Z M 170.550781 55.097656 C 170.601562 54.980469 170.601562 54.867188 170.550781 54.75 L 170.304688 54.75 Z M 171.40625 58.917969 C 171.585938 58.738281 171.40625 58.917969 171.308594 58.917969 C 171.210938 58.917969 171.902344 57.652344 171.308594 57.765625 L 171.40625 57.765625 C 170.996094 57.765625 170.632812 58.03125 170.386719 57.945312 L 170.535156 57.816406 L 170.320312 57.714844 C 170.394531 57.632812 170.488281 57.59375 170.597656 57.601562 C 170.351562 57.421875 170.46875 57.058594 170.453125 56.777344 L 169.464844 57.371094 C 169.644531 57.074219 170.023438 56.515625 169.675781 56.5625 L 169.988281 56.332031 C 170.550781 55.675781 169.59375 56.101562 169.757812 55.855469 L 170.089844 55.527344 L 170.089844 55.738281 C 170.210938 55.503906 170.359375 55.28125 170.535156 55.082031 C 170.445312 55.109375 170.363281 55.101562 170.285156 55.058594 C 170.203125 55.015625 170.148438 54.953125 170.121094 54.867188 C 170.121094 54.621094 169.777344 54.519531 170.121094 54.042969 L 169.695312 54.042969 L 169.859375 53.699219 L 170.171875 53.597656 C 170.171875 53.878906 170.5 54.339844 170.617188 54.6875 L 170.765625 54.6875 C 170.765625 54.472656 170.5 54.289062 170.484375 54.140625 C 170.46875 53.992188 170.8125 53.796875 171.0625 53.863281 L 170.714844 53.863281 C 170.503906 53.375 170.503906 52.886719 170.714844 52.394531 L 170.566406 52.496094 C 170.433594 52.378906 170.304688 52.28125 170.566406 52.164062 C 170.472656 51.671875 170.582031 51.226562 170.894531 50.832031 L 170.5 50.832031 C 170.5 50.734375 171.027344 50.4375 170.5 50.550781 L 170.269531 50.402344 C 170.269531 50.269531 170.023438 50.253906 170.269531 50.058594 C 170.367188 49.726562 169.941406 50.15625 170.074219 49.777344 C 170.203125 49.398438 169.5625 49.777344 169.59375 49.628906 L 170.089844 49.316406 C 170.320312 48.953125 169.757812 49.050781 169.644531 48.65625 C 169.902344 48.320312 170.242188 48.160156 170.664062 48.179688 C 170.121094 48.179688 170.320312 48.179688 170.007812 48.03125 C 170.144531 47.953125 170.292969 47.925781 170.453125 47.949219 C 170.632812 47.667969 170.238281 47.867188 170.203125 47.703125 C 169.851562 47.785156 169.496094 47.835938 169.132812 47.851562 L 169.035156 47.949219 C 168.789062 47.832031 168.640625 47.683594 168.769531 47.4375 L 168.96875 47.4375 L 168.820312 47.257812 L 169.050781 47.175781 L 168.886719 46.894531 C 168.886719 46.894531 168.6875 46.632812 168.769531 46.464844 L 168.917969 46.464844 C 169.230469 45.972656 168.589844 45.839844 168.425781 45.414062 L 168.722656 45.414062 C 168.953125 45.179688 168.277344 45.496094 168.359375 45.28125 L 168.707031 45.164062 C 168.210938 45.164062 168.707031 44.949219 168.886719 44.785156 L 168.441406 44.96875 L 168.441406 44.738281 C 168.441406 44.472656 168.96875 44.441406 169.214844 44.40625 L 168.820312 44.40625 L 169.199219 44.257812 C 168.707031 44.257812 169.199219 44.144531 168.9375 44.011719 C 169.085938 44.011719 169.183594 44.011719 169.230469 43.898438 L 168.589844 43.75 L 168.886719 43.863281 L 168.292969 44.011719 C 167.800781 43.929688 168.292969 43.714844 168.078125 43.617188 L 168.277344 43.617188 C 168.078125 43.4375 168.277344 43.351562 168.410156 43.1875 C 168.539062 43.023438 168.179688 43.351562 168.0625 43.289062 C 167.949219 43.222656 168.261719 43.1875 168.308594 43.105469 C 167.914062 43.203125 167.667969 43.105469 167.800781 42.890625 L 167.816406 42.890625 C 167.816406 42.890625 167.632812 42.890625 167.71875 42.777344 L 168.160156 42.777344 L 167.652344 42.777344 C 167.652344 42.660156 167.386719 42.628906 167.652344 42.5625 L 167.816406 42.5625 L 167.816406 41.886719 L 168.160156 41.773438 C 167.667969 41.855469 168.160156 41.375 167.652344 41.558594 C 167.929688 41.34375 167.289062 41.144531 167.964844 41.03125 C 167.964844 40.585938 167.191406 40.535156 167.371094 39.925781 C 167.882812 39.582031 167.550781 39.136719 167.519531 38.789062 C 167.089844 38.199219 166.761719 37.835938 166.382812 37.226562 C 167.058594 36.601562 165.839844 36.304688 166.152344 35.761719 L 165.804688 35.761719 C 166.21875 35.332031 165.492188 35.066406 165.804688 34.523438 C 165.71875 34.507812 165.640625 34.46875 165.574219 34.410156 C 165.5 34.472656 165.410156 34.519531 165.3125 34.539062 C 165.410156 34.394531 165.179688 34.210938 165.574219 34.113281 C 165.988281 34.015625 165.296875 33.816406 165.574219 33.585938 L 165.179688 33.785156 L 165.179688 33.4375 L 165.277344 33.4375 C 164.078125 32.761719 165.277344 31.9375 164.175781 31.3125 C 164.6875 31.3125 163.894531 31.195312 164.390625 31.050781 C 164.964844 30.636719 164.144531 30.671875 163.910156 30.539062 L 163.8125 30.539062 L 163.8125 30.207031 C 164.523438 30.207031 163.21875 30.125 163.8125 30.207031 C 164.058594 29.238281 163.253906 28.28125 163.203125 27.261719 L 163.039062 27.34375 C 163.039062 27.097656 162.726562 26.847656 162.921875 26.585938 C 163.121094 26.320312 162.398438 26.304688 162.347656 26.238281 C 162 26.109375 162.511719 25.761719 162.511719 25.859375 C 162.378906 25.664062 161.722656 25.628906 161.886719 25.25 C 162.414062 25.003906 161.128906 24.59375 161.738281 24.394531 C 162.066406 23.882812 161.226562 23.734375 161.492188 23.207031 L 161.589844 23.207031 L 159.480469 22.894531 L 157.503906 23.71875 L 156.054688 24.921875 L 156.992188 26.816406 L 156.796875 28.59375 L 158.128906 32.398438 L 158.675781 32.546875 C 158.082031 33.535156 159.285156 34.195312 158.953125 35.234375 L 159.347656 35.132812 C 159.449219 35.347656 159.183594 35.414062 159.136719 35.480469 C 160.074219 37.476562 160.714844 39.5625 161.0625 41.738281 C 160.847656 42.003906 161.160156 42.53125 160.929688 42.742188 C 161.503906 43.214844 161.835938 43.820312 161.917969 44.554688 L 162.066406 44.835938 L 161.96875 44.835938 C 162.414062 45.066406 162.214844 45.691406 162.183594 46.136719 C 162.808594 48.558594 164.175781 50.550781 164.308594 53.070312 C 163.976562 54.355469 165.230469 55.378906 165.046875 56.792969 C 164.71875 57.140625 165.757812 59.609375 166.003906 59.792969 L 166.167969 59.296875 C 166.664062 60.1875 166.316406 60.765625 166.941406 61.472656 L 166.8125 61.472656 C 166.8125 61.621094 167.847656 61.375 166.8125 63.121094 C 166.8125 63.121094 166.925781 63.121094 166.8125 63.25 L 167.042969 62.9375 C 167.207031 63.054688 167.46875 63.101562 167.550781 63.265625 C 167.492188 63.324219 167.421875 63.363281 167.339844 63.382812 L 167.550781 63.8125 L 167.273438 64.042969 C 167.488281 64.042969 168.128906 63.875 167.867188 64.339844 C 168.277344 64.074219 168.179688 64.4375 168.410156 64.339844 L 168.210938 64.503906 C 168.328125 64.699219 168.574219 65.0625 168.835938 65.097656 C 169.175781 64.570312 169.554688 64.078125 169.972656 63.613281 C 169.972656 63.960938 169.972656 63.613281 170.1875 63.613281 L 170.074219 63.613281 C 170.074219 63.398438 170.417969 63.316406 170.46875 63.203125 C 170.429688 63.214844 170.390625 63.214844 170.351562 63.203125 C 170.351562 63.203125 170.238281 63.203125 170.253906 63.203125 C 170.222656 63.113281 170.222656 63.027344 170.253906 62.9375 L 170.5 62.9375 C 170.007812 62.9375 170.945312 61.835938 170.894531 61.636719 C 171.160156 61.375 170.714844 61.257812 170.796875 60.976562 C 170.878906 60.699219 171.09375 60.699219 171.257812 60.46875 C 171.421875 60.238281 170.976562 60.582031 170.945312 60.46875 L 171.191406 60.105469 C 171.191406 60.253906 171.390625 60.105469 171.472656 60.105469 C 171.554688 60.105469 171.785156 59.363281 171.292969 59.429688 C 171.421875 59.050781 171.621094 58.984375 171.605469 58.835938 C 171.585938 58.6875 171.488281 58.96875 171.390625 58.984375 Z M 167.4375 63.332031 C 167.253906 63.449219 167.320312 63.449219 167.421875 63.398438 Z M 170.5 56.746094 L 170.714844 56.613281 Z M 171.605469 60.039062 C 171.605469 59.875 171.605469 59.875 171.503906 59.921875 C 171.40625 59.972656 171.523438 60.136719 171.585938 60.152344 Z M 168.113281 64.4375 C 168.113281 64.519531 168.210938 64.4375 168.308594 64.4375 L 168.308594 64.304688 Z M 170.285156 63.464844 L 170.433594 63.464844 C 170.335938 63.4375 170.28125 63.476562 170.269531 63.582031 Z M 213.789062 36.238281 L 213.984375 36.238281 Z M 212.800781 39.167969 C 212.800781 39.167969 212.882812 39.1875 212.800781 39.152344 Z M 214.085938 29.089844 C 214.085938 29.082031 214.085938 29.078125 214.085938 29.074219 Z M 216.554688 11.761719 Z M 216.6875 11.761719 C 216.6875 11.761719 216.570312 11.761719 216.554688 11.761719 C 216.539062 11.761719 216.40625 11.875 216.457031 11.957031 C 216.507812 12.039062 216.589844 11.84375 216.6875 11.828125 Z M 207.84375 28.398438 C 207.84375 28.398438 207.824219 28.445312 207.84375 28.464844 Z M 217.394531 3.292969 L 217.59375 3.292969 Z M 212.289062 41.921875 Z M 206.96875 55.507812 L 206.835938 55.425781 Z M 210.824219 45.625 C 210.824219 45.625 210.9375 45.394531 210.972656 45.179688 L 210.722656 45.179688 Z M 213.9375 0.179688 L 212.058594 0.921875 L 212.058594 3.722656 L 211.039062 5.816406 L 210.445312 11.183594 L 210.855469 11.644531 C 209.851562 12.550781 210.609375 14.050781 209.835938 15.089844 L 210.246094 15.171875 C 210.246094 15.5 209.964844 15.433594 209.882812 15.5 C 209.765625 18.441406 209.355469 21.339844 208.648438 24.195312 C 208.335938 24.410156 208.367188 25.21875 208.054688 25.382812 C 208.332031 26.289062 208.332031 27.195312 208.054688 28.101562 L 208.054688 28.527344 L 207.941406 28.527344 C 208.238281 29.039062 207.757812 29.714844 207.527344 30.175781 C 206.9375 33.46875 207.214844 36.632812 206.144531 39.8125 C 205.238281 41.210938 205.882812 43.105469 205.058594 44.753906 C 204.5625 46.101562 204.378906 47.492188 204.5 48.921875 L 205.058594 48.589844 C 205.058594 49.941406 204.480469 50.46875 204.710938 51.65625 L 204.613281 51.574219 C 204.464844 51.722656 205.570312 51.984375 203.921875 53.582031 C 203.921875 53.582031 204.019531 53.664062 203.921875 53.78125 L 204.285156 53.515625 C 204.285156 53.714844 204.582031 53.910156 204.582031 54.175781 C 204.5 54.191406 204.414062 54.191406 204.332031 54.175781 L 204.332031 54.800781 L 203.988281 54.933594 C 204.136719 55.148438 204.828125 55.164062 204.367188 55.609375 C 204.859375 55.492188 204.613281 55.90625 204.859375 55.871094 L 204.613281 55.96875 C 204.613281 56.285156 204.613281 56.859375 204.878906 57.023438 C 205.410156 56.554688 205.988281 56.140625 206.605469 55.789062 C 206.410156 56.183594 206.605469 55.90625 206.820312 55.789062 L 206.707031 55.789062 C 206.855469 55.558594 207.148438 55.609375 207.25 55.492188 L 207.132812 55.492188 C 207.132812 55.492188 207.035156 55.492188 207.132812 55.492188 C 207.097656 55.371094 207.097656 55.25 207.132812 55.128906 L 207.378906 55.128906 C 206.9375 54.867188 208.304688 53.992188 208.351562 53.746094 C 208.699219 53.550781 208.351562 53.1875 208.566406 52.890625 C 208.78125 52.59375 208.960938 52.691406 209.226562 52.476562 C 209.488281 52.265625 208.914062 52.476562 208.929688 52.378906 L 209.324219 52.050781 C 209.324219 52.28125 209.488281 52.183594 209.585938 52.148438 C 209.6875 51.835938 210.214844 51.390625 209.734375 51.226562 C 210.050781 50.816406 210.246094 50.847656 210.296875 50.667969 C 210.34375 50.484375 210.097656 50.832031 210 50.816406 C 210.246094 50.667969 210 50.714844 209.902344 50.816406 C 209.71875 50.519531 211.003906 49.578125 210.476562 49.429688 L 210.574219 49.429688 C 210.179688 49.316406 209.769531 49.347656 209.585938 49.117188 L 209.785156 49.035156 L 209.636719 48.820312 C 209.734375 48.761719 209.835938 48.761719 209.933594 48.820312 C 209.800781 48.492188 210.082031 48.113281 210.199219 47.75 L 209.027344 47.964844 C 209.339844 47.683594 209.933594 47.207031 209.585938 47.09375 L 210 46.960938 C 210.808594 46.449219 209.753906 46.484375 210 46.269531 L 210.445312 46.003906 L 210.445312 46.316406 C 210.648438 46.089844 210.878906 45.890625 211.136719 45.726562 C 211.039062 45.691406 210.964844 45.628906 210.914062 45.535156 C 210.863281 45.445312 210.851562 45.347656 210.871094 45.246094 C 210.972656 44.949219 210.722656 44.65625 211.21875 44.226562 L 210.824219 44.027344 L 211.136719 43.699219 L 211.464844 43.699219 C 211.464844 44.0625 211.464844 44.769531 211.351562 45.246094 L 211.5 45.246094 C 211.5 44.96875 211.5 44.621094 211.5 44.441406 C 211.5 44.257812 211.960938 44.191406 212.15625 44.441406 L 211.859375 44.210938 C 211.878906 43.527344 212.082031 42.910156 212.46875 42.347656 L 212.304688 42.347656 C 212.304688 42.132812 212.175781 41.9375 212.4375 41.921875 C 212.566406 41.320312 212.875 40.832031 213.359375 40.453125 L 212.996094 40.304688 C 212.996094 40.191406 213.640625 40.09375 213.113281 39.960938 L 212.980469 39.664062 C 212.980469 39.5 212.832031 39.367188 213.097656 39.203125 C 213.328125 38.839844 212.75 39.203125 213.097656 38.757812 C 213.394531 38.660156 212.636719 38.511719 212.75 38.3125 L 213.34375 38.199219 C 213.722656 37.851562 213.179688 37.703125 213.34375 37.144531 C 213.507812 37.015625 213.695312 36.953125 213.902344 36.953125 C 214.113281 36.953125 214.296875 37.015625 214.464844 37.144531 C 214.003906 36.8125 214.152344 36.980469 213.96875 36.617188 C 214.132812 36.589844 214.277344 36.632812 214.398438 36.75 C 214.675781 36.484375 214.234375 36.535156 214.28125 36.320312 C 213.925781 36.234375 213.585938 36.105469 213.261719 35.941406 L 213.128906 35.941406 C 212.964844 35.675781 212.898438 35.414062 213.128906 35.183594 L 213.328125 35.183594 L 213.328125 34.886719 L 213.589844 34.886719 L 213.589844 34.589844 C 213.542969 34.378906 213.578125 34.183594 213.6875 33.996094 L 213.835938 33.996094 C 214.347656 33.550781 213.835938 33.058594 213.835938 32.449219 L 214.117188 32.582031 C 214.429688 32.417969 213.671875 32.449219 213.855469 32.234375 L 214.214844 32.234375 C 213.789062 31.953125 214.347656 31.988281 214.5625 31.871094 L 214.085938 31.871094 L 214.214844 31.625 C 214.414062 31.34375 214.84375 31.527344 215.074219 31.625 L 214.742188 31.363281 L 215.15625 31.363281 C 214.695312 31.148438 215.253906 31.230469 215.039062 30.917969 C 215.1875 30.917969 215.269531 30.917969 215.351562 30.917969 L 214.84375 30.390625 L 215.054688 30.6875 L 214.464844 30.554688 C 214.050781 30.226562 214.59375 30.207031 214.464844 29.976562 L 214.613281 30.144531 C 214.511719 29.796875 214.777344 29.828125 214.941406 29.664062 C 214.808594 29.664062 214.628906 29.765625 214.578125 29.664062 C 214.527344 29.566406 214.792969 29.664062 214.875 29.582031 C 214.480469 29.484375 214.316406 29.238281 214.527344 29.054688 L 214.675781 29.054688 C 214.675781 29.054688 214.511719 28.957031 214.675781 28.875 L 215.105469 29.007812 L 214.710938 28.757812 C 214.859375 28.660156 214.5625 28.445312 214.859375 28.496094 L 214.859375 28.578125 L 215.105469 27.707031 L 215.453125 27.707031 C 214.992188 27.558594 215.714844 27.261719 215.105469 27.195312 C 215.46875 27.078125 214.972656 26.484375 215.648438 26.699219 C 215.78125 26.125 215.171875 25.695312 215.648438 25.054688 C 216.273438 24.886719 216.191406 24.164062 216.324219 23.703125 C 216.226562 22.78125 216.09375 22.171875 216.0625 21.214844 C 216.949219 20.789062 216.0625 19.800781 216.539062 19.273438 L 215.582031 19.105469 C 216.160156 18.777344 215.582031 18.085938 216.210938 17.609375 C 216.136719 17.535156 216.085938 17.445312 216.0625 17.34375 C 215.960938 17.375 215.863281 17.375 215.765625 17.34375 C 215.929688 17.210938 215.765625 16.851562 216.210938 16.949219 C 216.621094 17.03125 216.09375 16.4375 216.472656 16.308594 L 216.027344 16.308594 L 216.144531 16.027344 C 215.386719 14.578125 216.851562 14.214844 216.144531 12.847656 C 216.605469 13.09375 215.929688 12.566406 216.457031 12.632812 C 217.164062 12.4375 216.457031 12.039062 216.273438 11.761719 C 216.242188 11.777344 216.210938 11.777344 216.175781 11.761719 L 216.308594 11.332031 C 216.917969 11.695312 215.8125 10.9375 216.308594 11.332031 C 216.96875 10.261719 216.703125 8.679688 217.148438 7.378906 L 216.96875 7.378906 C 216.96875 7.050781 216.96875 6.589844 217.214844 6.375 C 217.460938 6.160156 216.867188 5.75 216.867188 5.648438 C 216.867188 5.550781 217.230469 5.15625 217.179688 5.269531 C 217.179688 4.957031 216.589844 4.578125 216.917969 4.214844 C 217.496094 4.214844 216.539062 2.980469 217.179688 3.082031 C 217.707031 2.617188 217.03125 1.992188 217.511719 1.433594 L 217.609375 1.433594 L 215.960938 -0.03125 Z M 204.054688 54.175781 C 203.921875 54.140625 204.054688 54.160156 204.054688 54.175781 Z M 209.882812 47.585938 L 210.132812 47.585938 Z M 209.308594 52.265625 C 209.308594 52.066406 209.308594 52.050781 209.308594 52.066406 C 209.257812 52.164062 209.273438 52.246094 209.355469 52.3125 Z M 204.367188 55.722656 C 204.367188 55.722656 204.21875 55.820312 204.167969 55.886719 C 204.121094 55.953125 204.167969 55.886719 204.367188 55.886719 Z M 206.574219 55.722656 L 206.707031 55.722656 C 206.664062 55.703125 206.625 55.710938 206.59375 55.742188 C 206.558594 55.777344 206.554688 55.8125 206.574219 55.855469 Z M 255.707031 59.019531 L 255.871094 59.148438 Z M 253.796875 61.175781 C 253.796875 61.175781 253.847656 61.355469 253.796875 61.308594 Z M 258.460938 52.941406 L 258.410156 53.105469 Z M 266.695312 38.9375 Z M 266.695312 39.054688 C 266.695312 39.054688 266.695312 39.054688 266.695312 38.9375 C 266.695312 38.824219 266.511719 38.9375 266.53125 39.085938 C 266.546875 39.234375 266.644531 39.203125 266.808594 39.21875 Z M 252.824219 49.957031 C 252.824219 49.957031 252.941406 50.105469 252.941406 50.125 Z M 270.335938 31.839844 L 270.5 31.972656 Z M 252.214844 63.25 L 252.085938 63.25 Z M 242.644531 72.886719 L 242.546875 72.773438 Z M 249.597656 65.871094 C 249.597656 65.871094 249.777344 65.722656 249.878906 65.539062 L 249.679688 65.390625 Z M 268.933594 35.742188 L 268.753906 35.742188 C 268.953125 35.496094 268.984375 35.035156 269.347656 34.984375 C 269.710938 34.9375 269.246094 34.308594 269.347656 34.210938 C 269.230469 33.832031 269.855469 33.929688 269.773438 34.015625 C 269.855469 33.734375 269.480469 33.191406 269.90625 32.992188 C 270.449219 33.171875 269.90625 31.789062 270.53125 32.101562 C 271.191406 31.90625 270.78125 31.097656 271.40625 30.851562 L 270.320312 28.90625 L 268.292969 28 L 266.316406 27.917969 L 265.292969 30.308594 L 263.648438 31.722656 L 261.210938 36.238281 L 261.441406 36.78125 C 260.203125 37.191406 260.371094 38.773438 259.316406 39.367188 L 259.644531 39.597656 C 259.511719 39.859375 259.316406 39.714844 259.199219 39.746094 C 258.097656 42.222656 256.738281 44.542969 255.117188 46.714844 C 254.753906 46.714844 254.507812 47.488281 254.160156 47.503906 C 254.121094 48.390625 253.816406 49.175781 253.253906 49.859375 L 253.121094 50.222656 C 253.121094 50.222656 253.121094 50.222656 253.023438 50.222656 C 253.121094 50.78125 252.445312 51.175781 252.050781 51.539062 C 250.40625 54.140625 249.546875 56.992188 247.457031 59.3125 C 246.136719 60.171875 246.074219 62.082031 244.738281 63.183594 C 244.226562 63.183594 242.777344 66.199219 242.777344 66.480469 L 243.421875 66.480469 C 242.976562 67.648438 242.234375 67.878906 242.035156 68.984375 L 242.035156 68.867188 C 241.855469 68.949219 242.777344 69.609375 240.71875 70.332031 C 240.71875 70.332031 240.71875 70.433594 240.605469 70.464844 L 241.015625 70.367188 C 241.015625 70.597656 241.148438 70.84375 241.015625 71.058594 C 240.933594 71.089844 240.851562 71.089844 240.769531 71.058594 L 240.539062 71.601562 L 240.175781 71.601562 C 240.175781 71.832031 240.867188 72.128906 240.289062 72.328125 C 240.785156 72.425781 240.40625 72.671875 240.652344 72.753906 L 240.289062 72.753906 C 240.191406 73.019531 240.027344 73.527344 240.175781 73.777344 C 240.832031 73.578125 241.503906 73.445312 242.183594 73.382812 C 241.871094 73.644531 242.183594 73.496094 242.351562 73.511719 L 242.265625 73.511719 C 242.5 73.363281 242.746094 73.511719 242.875 73.511719 C 242.84375 73.523438 242.8125 73.523438 242.777344 73.511719 C 242.777344 73.511719 242.695312 73.511719 242.777344 73.398438 C 242.8125 73.28125 242.875 73.1875 242.976562 73.117188 L 243.191406 73.25 C 242.875 72.855469 244.425781 72.625 244.558594 72.425781 C 244.953125 72.425781 244.769531 71.949219 245.050781 71.765625 C 245.332031 71.585938 245.480469 71.765625 245.792969 71.765625 C 246.105469 71.765625 245.511719 71.652344 245.5625 71.550781 L 246.039062 71.4375 C 246.039062 71.617188 246.136719 71.601562 246.253906 71.617188 C 246.367188 71.636719 247.078125 71.222656 246.699219 70.878906 C 247.125 70.648438 247.292969 70.746094 247.40625 70.613281 C 247.523438 70.480469 247.175781 70.613281 247.078125 70.613281 C 247.355469 70.613281 247.078125 70.515625 247.078125 70.613281 C 247.078125 70.285156 248.542969 69.972656 248.097656 69.640625 C 247.785156 69.378906 247.390625 69.261719 247.292969 68.984375 L 247.503906 68.984375 L 247.503906 68.734375 C 247.617188 68.730469 247.710938 68.765625 247.785156 68.851562 C 247.785156 68.503906 248.164062 68.273438 248.394531 68.011719 L 247.257812 67.746094 C 247.621094 67.632812 248.34375 67.453125 248.066406 67.203125 L 248.476562 67.203125 C 249.398438 67.074219 248.476562 66.695312 248.742188 66.609375 L 249.234375 66.609375 L 249.085938 66.859375 C 249.359375 66.75 249.636719 66.671875 249.925781 66.628906 C 249.84375 66.570312 249.792969 66.488281 249.777344 66.390625 C 249.761719 66.289062 249.785156 66.199219 249.84375 66.117188 C 250.042969 65.902344 249.84375 65.539062 250.519531 65.375 L 250.222656 65.046875 L 250.617188 64.882812 L 250.898438 65.046875 C 250.699219 65.34375 250.488281 65.953125 250.257812 66.347656 L 250.386719 66.347656 C 250.519531 66.117188 250.550781 65.789062 250.667969 65.65625 C 250.785156 65.523438 251.179688 65.65625 251.292969 65.871094 L 251.097656 65.558594 C 251.351562 64.964844 251.757812 64.511719 252.316406 64.191406 L 252.132812 64.191406 C 252.132812 63.992188 252.132812 63.777344 252.414062 63.875 C 252.742188 63.394531 253.191406 63.089844 253.765625 62.972656 L 253.46875 62.707031 C 253.46875 62.625 254.144531 62.707031 253.699219 62.445312 L 253.699219 62.148438 C 253.8125 62.015625 253.699219 61.816406 253.960938 61.785156 C 254.308594 61.570312 253.664062 61.605469 254.078125 61.375 C 254.375 61.375 253.730469 60.976562 253.914062 60.863281 L 254.488281 60.976562 C 254.949219 60.847656 254.488281 60.5 254.769531 60.039062 C 254.96875 59.992188 255.164062 60.007812 255.355469 60.078125 C 255.546875 60.148438 255.703125 60.269531 255.824219 60.433594 C 255.511719 59.972656 255.59375 60.171875 255.542969 59.792969 C 255.699219 59.832031 255.816406 59.925781 255.890625 60.070312 C 256.25 59.957031 255.890625 59.824219 255.890625 59.660156 C 255.597656 59.441406 255.328125 59.203125 255.082031 58.933594 L 254.933594 58.933594 C 254.933594 58.640625 254.933594 58.390625 255.214844 58.277344 L 255.378906 58.390625 L 255.378906 58.113281 L 255.609375 58.226562 L 255.742188 57.863281 L 255.660156 57.863281 C 255.660156 57.765625 255.742188 57.46875 255.957031 57.386719 L 256.070312 57.46875 C 256.695312 57.304688 256.398438 56.664062 256.648438 56.167969 L 256.863281 56.367188 C 257.207031 56.367188 256.515625 56.101562 256.746094 55.988281 L 257.058594 56.152344 C 256.761719 55.738281 257.273438 55.988281 257.503906 55.96875 L 257.074219 55.773438 L 257.289062 55.609375 C 257.570312 55.445312 257.882812 55.757812 258.0625 55.921875 L 257.851562 55.574219 L 258.230469 55.757812 C 257.898438 55.378906 258.359375 55.675781 258.230469 55.328125 C 258.375 55.328125 258.410156 55.492188 258.507812 55.460938 L 258.230469 54.800781 L 258.328125 55.148438 L 257.816406 54.800781 C 257.570312 54.355469 258.0625 54.539062 258.015625 54.308594 L 258.015625 54.503906 C 258.015625 54.175781 258.277344 54.289062 258.476562 54.207031 C 258.359375 54.207031 258.179688 54.207031 258.164062 54.042969 C 258.144531 53.878906 258.375 54.042969 258.476562 54.042969 C 258.144531 53.8125 258.082031 53.515625 258.34375 53.449219 L 258.460938 53.550781 C 258.460938 53.464844 258.34375 53.382812 258.460938 53.367188 L 258.820312 53.648438 L 258.542969 53.285156 C 258.707031 53.285156 258.542969 52.941406 258.753906 53.105469 L 258.753906 53.21875 L 259.28125 52.542969 L 259.597656 52.726562 C 259.21875 52.394531 259.992188 52.429688 259.449219 52.132812 C 259.828125 52.132812 259.578125 51.472656 260.121094 51.917969 C 260.453125 51.472656 260.039062 50.878906 260.683594 50.484375 C 261.308594 50.585938 261.472656 49.925781 261.753906 49.578125 C 261.984375 48.738281 262.082031 48.164062 262.363281 47.324219 C 263.335938 47.324219 262.808594 46.070312 263.484375 45.839844 L 263.285156 45.542969 C 263.925781 45.542969 263.679688 44.6875 264.371094 44.507812 C 264.359375 44.40625 264.359375 44.308594 264.371094 44.210938 C 264.371094 44.210938 264.273438 44.210938 264.09375 44.128906 C 264.289062 44.128906 264.289062 43.714844 264.636719 43.960938 C 264.980469 44.191406 264.636719 43.46875 265.097656 43.519531 L 264.667969 43.371094 L 265 42.824219 L 265 42.925781 C 264.800781 41.375 266.28125 41.640625 266.117188 40.191406 C 266.449219 40.570312 266.019531 39.859375 266.480469 40.191406 C 267.1875 40.289062 266.628906 39.664062 266.613281 39.367188 L 266.875 39.054688 C 267.320312 39.613281 266.5625 38.511719 266.875 39.054688 C 267.78125 38.148438 268.09375 36.683594 268.933594 35.742188 Z M 240.605469 70.828125 C 240.457031 70.828125 240.503906 70.828125 240.605469 70.828125 Z M 248.230469 67.535156 L 248.476562 67.535156 Z M 246.074219 71.339844 C 246.21875 71.207031 246.1875 71.171875 246.074219 71.15625 C 246.050781 71.207031 246.050781 71.257812 246.074219 71.304688 Z M 240.058594 72.425781 C 240.058594 72.425781 240.058594 72.523438 240.226562 72.539062 C 240.222656 72.484375 240.222656 72.429688 240.226562 72.375 C 240.167969 72.40625 240.113281 72.4375 240.058594 72.476562 Z M 242.285156 73.296875 L 242.398438 73.398438 C 242.398438 73.398438 242.351562 73.265625 242.285156 73.265625 Z M 280.515625 91.320312 L 280.628906 91.484375 Z M 279.046875 91.894531 C 279.046875 91.894531 279.097656 91.929688 279.046875 91.863281 Z M 282.621094 88.4375 C 282.621094 88.4375 282.621094 88.4375 282.621094 88.402344 Z M 288.949219 82.671875 Z M 288.949219 82.671875 C 288.847656 82.671875 288.816406 82.671875 288.816406 82.671875 C 288.816406 82.671875 288.949219 82.671875 289.015625 82.769531 C 288.964844 82.746094 288.941406 82.707031 288.949219 82.65625 Z M 278.40625 83.792969 C 278.40625 83.792969 278.390625 83.757812 278.40625 83.773438 Z M 291.8125 79.558594 L 291.929688 79.722656 Z M 277.910156 92.734375 L 277.8125 92.621094 Z M 270.582031 94.894531 L 270.582031 94.761719 Z M 275.902344 93.246094 C 275.902344 93.246094 276.035156 93.246094 276.117188 93.246094 L 275.953125 93.046875 Z M 279.625 91.023438 C 279.984375 91.179688 280.253906 91.429688 280.433594 91.78125 C 280.183594 91.320312 280.25 91.5 280.21875 91.203125 C 280.332031 91.304688 280.417969 91.425781 280.480469 91.566406 C 280.746094 91.566406 280.480469 91.351562 280.480469 91.300781 C 280.25 90.972656 279.855469 90.460938 279.871094 90.429688 L 279.757812 90.429688 C 279.757812 90.183594 279.757812 90.035156 279.953125 90.101562 L 280.085938 90.246094 L 280.085938 90.082031 L 280.25 90.265625 L 280.351562 90.082031 C 280.351562 90.082031 280.351562 89.851562 280.582031 89.902344 L 280.679688 90 C 281.15625 90.183594 280.925781 89.605469 281.125 89.375 L 281.273438 89.621094 C 281.550781 89.769531 281.007812 89.257812 281.273438 89.292969 L 281.519531 89.574219 C 281.289062 89.144531 281.683594 89.574219 281.847656 89.574219 L 281.519531 89.242188 L 281.683594 89.242188 C 281.898438 89.242188 282.144531 89.636719 282.292969 89.835938 L 282.128906 89.488281 L 282.410156 89.785156 C 282.144531 89.375 282.507812 89.785156 282.410156 89.523438 C 282.523438 89.621094 282.558594 89.722656 282.640625 89.738281 L 282.410156 89.160156 L 282.410156 89.441406 L 282.03125 88.964844 C 281.832031 88.535156 282.210938 88.964844 282.160156 88.714844 L 282.160156 88.878906 C 282.160156 88.667969 282.359375 88.878906 282.523438 88.878906 C 282.425781 88.878906 282.292969 88.714844 282.277344 88.601562 C 282.261719 88.484375 282.441406 88.75 282.523438 88.765625 C 282.261719 88.46875 282.210938 88.222656 282.410156 88.304688 L 282.507812 88.417969 C 282.507812 88.417969 282.507812 88.269531 282.507812 88.304688 L 282.769531 88.667969 L 282.558594 88.289062 C 282.6875 88.289062 282.558594 88.039062 282.722656 88.289062 L 282.722656 88.386719 L 283.132812 88.171875 L 283.378906 88.4375 C 283.085938 88.039062 283.675781 88.4375 283.265625 87.976562 C 283.546875 88.171875 283.363281 87.578125 283.777344 88.140625 C 284.023438 87.992188 283.777344 87.382812 284.203125 87.398438 C 284.683594 87.761719 284.8125 87.398438 285.027344 87.300781 C 285.15625 86.867188 285.316406 86.441406 285.503906 86.03125 C 286.246094 86.476562 285.835938 85.371094 286.363281 85.519531 L 286.195312 85.222656 C 286.691406 85.488281 286.511719 84.8125 287.039062 85.027344 C 287.039062 84.878906 287.039062 84.8125 287.039062 84.796875 C 287.039062 84.78125 286.953125 84.796875 286.824219 84.597656 C 286.972656 84.597656 286.972656 84.417969 287.234375 84.746094 C 287.5 85.074219 287.234375 84.449219 287.582031 84.664062 L 287.25 84.367188 L 287.417969 84.367188 L 287.417969 84.464844 C 287.25 83.296875 288.386719 84.167969 288.273438 83.097656 C 288.519531 83.511719 288.191406 82.835938 288.535156 83.230469 C 288.882812 83.625 288.667969 82.933594 288.636719 82.71875 L 288.832031 82.621094 C 289.179688 83.214844 288.601562 82.109375 288.832031 82.621094 C 289.589844 82.621094 289.820312 81.765625 290.480469 81.519531 L 290.347656 81.402344 C 290.496094 81.402344 290.511719 81.023438 290.792969 81.140625 C 291.074219 81.253906 290.792969 80.628906 290.792969 80.578125 C 290.695312 80.265625 291.171875 80.578125 291.105469 80.578125 C 291.039062 80.578125 290.875 79.871094 291.203125 79.9375 C 291.632812 80.316406 291.203125 79.144531 291.699219 79.625 C 292.175781 79.804688 291.878906 79.0625 292.359375 79.179688 L 291.535156 77.335938 L 290.019531 75.820312 L 288.503906 74.847656 L 287.730469 76.015625 L 286.460938 76.214844 L 284.765625 78.058594 L 284.945312 78.535156 C 284.007812 78.238281 284.121094 79.410156 283.296875 79.328125 L 283.5625 79.640625 C 283.445312 79.773438 283.296875 79.558594 283.214844 79.542969 C 282.160156 80.5625 281.386719 81.960938 280.035156 82.425781 C 279.773438 82.308594 279.574219 82.671875 279.3125 82.523438 C 279.320312 82.773438 279.265625 83.007812 279.140625 83.222656 C 279.015625 83.441406 278.839844 83.609375 278.621094 83.726562 L 278.519531 83.90625 C 278.492188 83.914062 278.464844 83.914062 278.4375 83.90625 C 278.4375 84.335938 277.996094 84.300781 277.679688 84.367188 C 276.398438 85.371094 275.769531 86.953125 274.15625 87.5625 C 273.152344 87.5625 273.101562 88.816406 272.082031 88.945312 C 271.6875 88.75 270.582031 90.117188 270.582031 90.363281 L 271.058594 90.609375 C 270.730469 91.203125 270.171875 91.023438 270.003906 91.699219 L 270.003906 91.597656 C 269.875 91.597656 270.582031 92.4375 269 91.976562 C 269 91.976562 269 92.078125 269 91.976562 L 269.3125 92.109375 C 269.3125 92.273438 269.429688 92.503906 269.3125 92.601562 C 269.242188 92.570312 269.179688 92.519531 269.132812 92.453125 L 268.96875 92.71875 L 268.671875 92.539062 C 268.671875 92.71875 269.199219 93.210938 268.769531 93.082031 C 269.148438 93.394531 268.769531 93.378906 269.035156 93.542969 L 268.835938 93.410156 C 268.710938 93.617188 268.683594 93.835938 268.753906 94.070312 C 269.28125 94.25 269.792969 94.46875 270.285156 94.726562 C 270.054688 94.726562 270.285156 94.808594 270.417969 94.910156 L 270.417969 94.808594 C 270.582031 94.808594 270.78125 95.042969 270.894531 95.058594 C 270.890625 95.023438 270.890625 94.992188 270.894531 94.957031 C 270.894531 94.957031 270.8125 94.875 270.894531 94.859375 C 270.894531 94.859375 270.992188 94.761719 271.042969 94.761719 L 271.207031 94.941406 C 270.960938 94.53125 272.148438 95.089844 272.246094 95.023438 C 272.34375 94.957031 272.410156 94.792969 272.625 94.808594 C 272.839844 94.828125 272.96875 95.007812 273.199219 95.089844 C 273.433594 95.171875 272.988281 94.894531 273.019531 94.828125 L 273.382812 94.976562 C 273.382812 95.074219 273.382812 95.140625 273.546875 95.207031 C 273.710938 95.273438 274.1875 95.320312 273.894531 94.910156 C 274.222656 94.910156 274.355469 95.089844 274.4375 95.058594 C 274.519531 95.023438 274.253906 95.058594 274.1875 94.910156 C 274.386719 95.023438 274.1875 94.910156 274.1875 94.828125 C 274.1875 94.746094 275.308594 95.074219 274.964844 94.628906 C 274.726562 94.382812 274.523438 94.105469 274.355469 93.804688 L 274.519531 93.90625 L 274.519531 93.707031 C 274.605469 93.753906 274.675781 93.820312 274.734375 93.90625 C 274.734375 93.65625 275.03125 93.691406 275.210938 93.625 L 274.335938 92.898438 C 274.617188 93 275.160156 93.210938 274.945312 92.898438 L 275.277344 93.128906 C 275.96875 93.460938 275.277344 92.75 275.457031 92.832031 L 275.851562 93.046875 L 275.722656 93.046875 C 275.953125 93.101562 276.171875 93.183594 276.378906 93.296875 C 276.265625 93.128906 276.230469 92.964844 276.378906 92.898438 C 276.527344 92.832031 276.378906 92.539062 276.890625 92.703125 L 276.660156 92.355469 L 276.972656 92.355469 L 277.1875 92.601562 C 277.011719 92.792969 276.847656 92.988281 276.691406 93.195312 L 276.792969 93.3125 C 276.890625 93.210938 276.921875 93 277.007812 92.964844 C 277.21875 93.050781 277.375 93.191406 277.484375 93.394531 L 277.335938 93.097656 C 277.664062 92.769531 277.648438 92.75 278.257812 92.71875 L 278.125 92.621094 C 278.125 92.488281 278.125 92.355469 278.339844 92.539062 C 278.6875 92.347656 279.03125 92.347656 279.378906 92.539062 L 279.148438 92.207031 C 279.148438 92.207031 279.65625 92.585938 279.328125 92.207031 L 279.328125 91.992188 C 279.328125 91.992188 279.328125 91.761719 279.527344 91.863281 C 279.789062 91.863281 279.296875 91.597656 279.609375 91.632812 C 279.921875 91.664062 279.34375 91.203125 279.476562 91.203125 L 279.921875 91.566406 C 279.824219 91.648438 279.410156 91.203125 279.625 91.023438 Z M 268.953125 92.242188 Z M 274.78125 93.492188 L 274.964844 93.640625 Z M 273.136719 95.140625 C 273.25 95.140625 273.21875 95.140625 273.136719 95.042969 Z M 268.523438 93.082031 C 268.523438 93.082031 268.523438 93.164062 268.65625 93.230469 L 268.65625 93.148438 Z M 270.171875 94.726562 L 270.171875 94.84375 C 270.171875 94.84375 270.285156 94.761719 270.234375 94.726562 Z M 331.59375 92.042969 Z M 309.027344 106.4375 C 309.03125 106.511719 309.03125 106.582031 309.027344 106.652344 Z M 305.074219 108.234375 C 305.074219 108.234375 305.15625 108.316406 305.140625 108.234375 Z M 317.148438 100.558594 L 317.148438 100.640625 C 317.191406 100.632812 317.214844 100.605469 317.214844 100.558594 Z M 338.117188 87.5625 Z M 338.117188 87.726562 C 338 87.726562 338.117188 87.613281 338.117188 87.578125 C 337.980469 87.519531 337.878906 87.550781 337.800781 87.679688 C 337.917969 87.792969 338.082031 87.679688 338.179688 87.726562 Z M 313.410156 95.46875 Z M 348.097656 80.890625 L 348.179688 81.089844 C 348.210938 81.027344 348.226562 80.960938 348.230469 80.890625 Z M 301.664062 110.195312 C 301.640625 110.144531 301.605469 110.101562 301.566406 110.0625 Z M 282.886719 117.886719 L 282.886719 117.722656 C 282.875 117.753906 282.875 117.789062 282.886719 117.820312 Z M 296.542969 112.269531 C 296.769531 112.230469 296.972656 112.136719 297.152344 111.992188 L 297.035156 111.777344 Z M 349.136719 75.769531 L 347.011719 75.042969 L 343.847656 77.417969 L 340.769531 78.40625 L 334.394531 82.539062 L 334.164062 83.230469 C 332.515625 83.230469 331.3125 85.109375 329.632812 85.4375 L 329.8125 85.800781 C 329.453125 86.0625 329.335938 85.800781 329.203125 85.800781 C 325.867188 88.257812 322.363281 90.453125 318.695312 92.390625 C 318.234375 92.390625 317.378906 93.066406 317.046875 92.964844 C 316.222656 93.96875 315.222656 94.746094 314.050781 95.304688 L 313.589844 95.667969 C 313.574219 95.632812 313.574219 95.601562 313.589844 95.566406 C 313.210938 96.226562 312.140625 96.457031 311.382812 96.738281 C 307.332031 99.09375 304.019531 102.007812 299.738281 103.9375 C 297.546875 104.480469 295.882812 106.585938 293.460938 107.394531 C 291.652344 108.191406 290.007812 109.238281 288.519531 110.539062 L 289.277344 110.65625 C 287.796875 111.824219 286.789062 111.84375 285.636719 113.027344 L 285.636719 112.878906 C 285.375 112.878906 285.851562 113.933594 282.9375 114.097656 C 282.851562 114.097656 282.9375 114.246094 282.6875 114.214844 L 283.230469 114.214844 C 283.105469 114.507812 282.929688 114.773438 282.707031 115.003906 C 282.613281 114.984375 282.542969 114.933594 282.492188 114.855469 L 281.78125 115.382812 L 281.386719 115.234375 C 281.253906 115.53125 281.71875 116.058594 280.910156 116.09375 C 281.386719 116.355469 280.761719 116.519531 280.910156 116.683594 L 280.628906 116.585938 C 280.300781 116.847656 279.691406 117.375 279.640625 117.691406 C 280.507812 117.679688 281.371094 117.746094 282.226562 117.886719 C 281.652344 118.085938 282.113281 118.019531 282.226562 118.101562 L 282.226562 117.96875 C 282.589844 117.96875 282.753906 118.152344 282.9375 118.117188 C 283.117188 118.085938 282.9375 118.117188 282.9375 118.117188 C 282.917969 118.078125 282.917969 118.039062 282.9375 118.003906 C 282.9375 118.003906 282.9375 117.902344 282.9375 117.871094 C 283.074219 117.757812 283.226562 117.675781 283.398438 117.625 L 283.527344 117.835938 C 283.527344 117.292969 285.421875 117.542969 285.734375 117.359375 C 286.195312 117.457031 286.378906 116.882812 286.839844 116.785156 C 287.300781 116.683594 287.332031 116.914062 287.746094 116.914062 C 288.15625 116.914062 287.515625 116.71875 287.664062 116.601562 L 288.304688 116.601562 C 288.058594 116.785156 288.304688 116.816406 288.304688 116.882812 C 288.71875 116.667969 289.589844 116.683594 289.441406 116.191406 C 290.101562 116.074219 290.199219 116.191406 290.445312 116.191406 C 290.316406 116.191406 290.132812 116.191406 290.066406 116.09375 C 290.398438 116.09375 290.152344 115.992188 290.066406 115.992188 C 290.28125 115.613281 292.226562 115.746094 292.011719 115.234375 L 292.011719 115.335938 C 291.878906 114.9375 291.550781 114.660156 291.664062 114.328125 L 291.914062 114.328125 L 292.042969 114.050781 C 292.257812 114.050781 292.242188 114.199219 292.273438 114.246094 C 292.539062 113.867188 293.179688 113.738281 293.660156 113.503906 L 292.605469 112.847656 C 293.117188 112.847656 294.070312 112.847656 293.957031 112.515625 L 294.382812 112.699219 C 295.519531 112.847656 294.761719 112.105469 295.175781 112.105469 L 295.765625 112.222656 L 295.386719 112.453125 C 295.765625 112.402344 296.144531 112.402344 296.523438 112.453125 C 296.523438 112.253906 296.523438 112.007812 296.871094 111.859375 C 297.214844 111.710938 297.414062 111.234375 298.253906 111.234375 L 298.253906 110.789062 L 298.832031 110.789062 L 299.011719 111.066406 C 298.550781 111.332031 297.777344 111.941406 297.214844 112.304688 L 297.214844 112.453125 C 297.546875 112.238281 297.859375 111.875 298.105469 111.761719 C 298.351562 111.644531 298.714844 111.875 298.617188 112.203125 L 298.617188 111.792969 C 299.371094 111.101562 300.246094 110.621094 301.234375 110.359375 L 301.039062 110.359375 C 301.21875 110.128906 301.417969 109.914062 301.613281 110.097656 C 302.316406 109.6875 303.074219 109.496094 303.886719 109.519531 L 303.789062 109.125 C 303.9375 109.125 304.480469 109.421875 304.265625 108.910156 L 304.496094 108.5625 C 304.710938 108.464844 304.726562 108.203125 305.074219 108.25 C 305.632812 108.121094 304.890625 107.953125 305.550781 107.824219 C 305.863281 107.953125 305.46875 107.28125 305.78125 107.195312 L 306.324219 107.527344 C 306.96875 107.527344 306.753906 106.984375 307.445312 106.570312 C 307.554688 106.5625 307.660156 106.574219 307.761719 106.609375 C 307.863281 106.644531 307.957031 106.699219 308.035156 106.773438 C 308.117188 106.847656 308.175781 106.933594 308.222656 107.03125 C 308.265625 107.132812 308.285156 107.238281 308.285156 107.34375 C 308.285156 106.734375 308.285156 106.984375 308.515625 106.539062 C 308.679688 106.671875 308.664062 106.734375 308.679688 106.949219 C 309.160156 106.949219 308.796875 106.652344 309.058594 106.503906 C 308.90625 106.167969 308.804688 105.820312 308.761719 105.449219 L 308.597656 105.449219 C 308.75 105.058594 309.035156 104.84375 309.457031 104.808594 L 309.457031 104.988281 L 309.75 104.695312 L 309.917969 104.890625 L 310.359375 104.527344 L 310.261719 104.527344 C 310.457031 104.308594 310.699219 104.167969 310.988281 104.101562 L 310.988281 104.230469 C 311.828125 104.230469 312.042969 103.425781 312.734375 102.949219 L 312.734375 103.261719 C 313.128906 103.359375 312.566406 102.832031 312.929688 102.78125 L 313.128906 103.078125 C 313.128906 102.519531 313.507812 102.949219 313.789062 103.078125 L 313.457031 102.734375 L 313.835938 102.617188 C 314.296875 102.519531 314.378906 102.980469 314.445312 103.226562 L 314.445312 102.75 L 314.710938 103.078125 C 314.710938 102.550781 314.921875 103.078125 315.121094 102.617188 C 315.21875 102.734375 315.121094 102.863281 315.335938 102.847656 L 315.566406 102.023438 L 315.386719 102.453125 L 315.105469 101.910156 C 315.203125 101.316406 315.582031 101.695312 315.746094 101.398438 L 315.746094 101.664062 C 316.058594 101.300781 316.226562 101.496094 316.503906 101.480469 C 316.375 101.480469 316.191406 101.351562 316.308594 101.183594 C 316.421875 101.019531 316.472656 101.332031 316.621094 101.316406 C 316.4375 100.953125 316.621094 100.609375 316.949219 100.625 C 316.957031 100.667969 316.957031 100.710938 316.949219 100.757812 C 316.949219 100.65625 316.949219 100.558594 317.113281 100.574219 L 317.277344 100.988281 L 317.277344 100.492188 C 317.476562 100.492188 317.527344 100.113281 317.65625 100.378906 L 317.65625 100.507812 L 318.8125 99.933594 L 319.007812 100.230469 C 318.859375 99.753906 319.699219 100.03125 319.339844 99.539062 C 319.71875 99.6875 320.03125 98.828125 320.277344 99.539062 C 321.019531 99.140625 321.050781 98.335938 322.105469 98.105469 C 322.714844 98.417969 323.472656 97.742188 324.050781 97.445312 C 325.019531 96.574219 325.613281 95.964844 326.636719 95.125 C 327.722656 95.421875 328.167969 93.871094 329.121094 93.820312 L 329.121094 93.425781 C 329.863281 93.574219 330.273438 92.585938 331.214844 92.621094 C 331.25 92.492188 331.308594 92.375 331.394531 92.273438 C 331.394531 92.273438 331.28125 92.273438 331.148438 92.078125 C 331.429688 92.078125 331.726562 91.699219 331.90625 92.078125 C 332.105469 92.457031 332.398438 91.566406 332.796875 91.730469 L 332.449219 91.433594 L 332.84375 91.269531 L 332.84375 91.402344 C 333.914062 89.605469 335.363281 90.363281 336.386719 88.699219 C 336.386719 89.226562 336.550781 88.304688 336.847656 88.699219 C 337.554688 89.046875 337.457031 88.15625 337.671875 87.808594 C 337.671875 87.808594 337.671875 87.808594 337.671875 87.710938 L 338.246094 87.449219 C 338.246094 88.207031 338.347656 86.738281 338.347656 87.449219 C 339.992188 87.035156 341.640625 85.488281 343.289062 84.695312 L 343.125 84.597656 C 343.550781 84.367188 343.945312 83.890625 344.40625 83.921875 C 344.867188 83.957031 344.867188 83.148438 344.96875 83.050781 C 345.164062 82.589844 345.773438 82.902344 345.609375 82.96875 C 345.941406 82.671875 345.957031 81.945312 346.613281 81.863281 C 347.078125 82.226562 347.703125 80.546875 348.046875 81.074219 C 348.921875 81.074219 349.152344 80.035156 350.058594 79.96875 C 350.066406 80.003906 350.066406 80.035156 350.058594 80.070312 L 350.484375 77.546875 Z M 282.390625 114.691406 C 282.308594 114.527344 282.328125 114.609375 282.390625 114.691406 Z M 293.726562 113.390625 L 293.957031 113.539062 Z M 288.058594 116.949219 C 288.339844 116.847656 288.320312 116.800781 288.257812 116.765625 C 288.167969 116.800781 288.101562 116.863281 288.058594 116.949219 Z M 280.414062 116.238281 C 280.265625 116.238281 280.414062 116.371094 280.515625 116.421875 L 280.730469 116.257812 C 280.648438 116.246094 280.5625 116.242188 280.480469 116.238281 Z M 282.195312 117.886719 L 282.195312 118.019531 C 282.195312 118.019531 282.308594 117.953125 282.261719 117.9375 Z M 282.195312 117.886719 " fill-opacity="1" fill-rule="nonzero"/></g></svg>