<svg xmlns="http://www.w3.org/2000/svg" xmlns:xlink="http://www.w3.org/1999/xlink" width="500" zoomAndPan="magnify" viewBox="0 0 375 374.999991" height="500" preserveAspectRatio="xMidYMid meet" version="1.0"><defs><g/><clipPath id="5b17d65d63"><path d="M 88.363281 177 L 286.363281 177 L 286.363281 219 L 88.363281 219 Z M 88.363281 177 " clip-rule="nonzero"/></clipPath><clipPath id="8323e0b395"><path d="M 88.363281 154 L 286.363281 154 L 286.363281 195 L 88.363281 195 Z M 88.363281 154 " clip-rule="nonzero"/></clipPath><clipPath id="499b1b8b98"><path d="M 146 203 L 261 203 L 261 235.5 L 146 235.5 Z M 146 203 " clip-rule="nonzero"/></clipPath><clipPath id="50b617dac5"><path d="M 95 37.5 L 248 37.5 L 248 119 L 95 119 Z M 95 37.5 " clip-rule="nonzero"/></clipPath><clipPath id="3ad0a5299d"><path d="M 88.363281 84 L 286.363281 84 L 286.363281 170 L 88.363281 170 Z M 88.363281 84 " clip-rule="nonzero"/></clipPath></defs><g clip-path="url(#5b17d65d63)"><path fill="#a2cdcd" d="M 286.632812 187.882812 C 286.632812 179.695312 271.210938 175.621094 253.761719 179.210938 L 151.890625 200.140625 C 149.152344 200.703125 146.375 201.195312 143.628906 201.597656 C 120.332031 205.019531 99.90625 202.273438 88.363281 195.378906 L 88.363281 199.3125 C 88.363281 204.160156 91.296875 208.484375 96.824219 211.78125 C 107.050781 217.890625 124.546875 219.859375 143.628906 217.058594 C 145.957031 216.714844 148.3125 216.300781 150.644531 215.820312 L 246.71875 196.082031 L 246.707031 196.085938 C 279.179688 189.417969 286.632812 196.96875 286.632812 196.96875 L 286.632812 187.882812 L 286.621094 187.886719 Z M 286.632812 187.882812 " fill-opacity="1" fill-rule="nonzero"/></g><g clip-path="url(#8323e0b395)"><path fill="#ffe1af" d="M 286.632812 164.027344 C 286.632812 155.839844 271.210938 151.765625 253.761719 155.355469 L 151.890625 176.285156 C 149.152344 176.847656 146.375 177.339844 143.628906 177.738281 C 120.332031 181.164062 99.90625 178.417969 88.363281 171.523438 L 88.363281 175.457031 C 88.363281 180.304688 91.296875 184.628906 96.824219 187.925781 C 107.050781 194.035156 124.546875 196.003906 143.628906 193.199219 C 145.957031 192.859375 148.3125 192.445312 150.644531 191.964844 L 246.71875 172.226562 L 246.707031 172.230469 C 279.179688 165.5625 286.632812 173.113281 286.632812 173.113281 L 286.632812 164.027344 L 286.621094 164.03125 Z M 286.632812 164.027344 " fill-opacity="1" fill-rule="nonzero"/></g><g clip-path="url(#499b1b8b98)"><path fill="#d57e7e" d="M 248.714844 205.863281 L 152.652344 225.59375 C 150.492188 226.039062 148.320312 226.402344 146.167969 226.742188 C 158.753906 232.523438 172.742188 235.769531 187.5 235.769531 C 216.257812 235.769531 242.136719 223.511719 260.25 203.957031 C 256.6875 204.378906 252.832031 205.019531 248.714844 205.863281 Z M 248.714844 205.863281 " fill-opacity="1" fill-rule="nonzero"/></g><path fill="#5a803d" d="M 273.714844 64.917969 C 271.878906 62.289062 261.621094 61.570312 249.832031 67.351562 C 247.0625 68.707031 243.078125 70.65625 238.375 73.046875 L 210.191406 65.457031 C 205.730469 64.054688 199.957031 64.300781 194.402344 66.9375 L 190.28125 68.898438 C 189.617188 69.191406 189.09375 69.617188 188.847656 70.050781 C 188.765625 70.488281 188.871094 70.882812 189.148438 71.207031 L 214.902344 85.199219 C 202.085938 91.925781 188.8125 98.996094 179.605469 104 L 169.964844 101.40625 C 168.054688 100.808594 165.582031 100.910156 163.203125 102.039062 L 161.4375 102.882812 C 161.152344 103.007812 160.925781 103.1875 160.824219 103.378906 C 160.789062 103.5625 160.832031 103.734375 160.953125 103.871094 L 170.515625 109.066406 C 167.609375 110.949219 166.542969 113.445312 168.140625 114.988281 C 169.550781 116.546875 172.976562 116.792969 176.496094 115.757812 L 179.214844 124.046875 C 179.34375 124.183594 179.539062 124.28125 179.789062 124.332031 C 180.070312 124.335938 180.390625 124.257812 180.664062 124.121094 L 182.425781 123.28125 C 184.808594 122.148438 185.925781 120.546875 185.925781 119.035156 L 186.472656 111.722656 C 196.441406 107.550781 210.691406 101.511719 224.347656 95.636719 L 231.785156 118.316406 C 232.082031 118.628906 232.542969 118.859375 233.125 118.976562 C 233.78125 118.988281 234.519531 118.808594 235.160156 118.480469 L 239.285156 116.523438 C 244.839844 113.882812 247.445312 110.140625 247.453125 106.617188 L 249.078125 84.859375 C 253.945312 82.699219 257.957031 80.691406 260.847656 79.507812 C 274.476562 73.921875 275.128906 66.949219 273.714844 64.917969 Z M 273.714844 64.917969 " fill-opacity="1" fill-rule="nonzero"/><g clip-path="url(#50b617dac5)"><path fill="#ffe1af" d="M 99.300781 103.355469 C 104.128906 108.574219 109.488281 112.507812 115.234375 115.054688 C 120.617188 117.4375 126.453125 118.644531 132.578125 118.644531 C 140.074219 118.644531 148.34375 116.796875 157.15625 113.167969 L 154.574219 111.765625 L 153.382812 110.375 C 151.296875 107.949219 150.425781 104.75 151 101.59375 L 151.300781 99.957031 L 152.109375 98.511719 C 153.25 96.46875 155.015625 94.851562 157.222656 93.835938 L 158.90625 93.03125 C 161.617188 91.742188 164.585938 91.066406 167.5 91.066406 C 169.296875 91.066406 171.050781 91.3125 172.710938 91.808594 L 178.347656 93.328125 C 182.945312 90.84375 188.214844 88.023438 193.769531 85.074219 L 182.785156 79.105469 L 181.597656 77.734375 C 179.335938 75.117188 178.398438 71.65625 179.03125 68.238281 L 179.335938 66.613281 L 180.148438 65.171875 C 181.441406 62.867188 183.496094 61.027344 186.09375 59.84375 L 190.125 57.929688 C 194.65625 55.777344 199.613281 54.636719 204.457031 54.636719 C 207.414062 54.636719 210.277344 55.050781 212.960938 55.871094 L 237.289062 62.421875 C 240.101562 61.015625 242.558594 59.808594 244.53125 58.839844 L 245.4375 58.398438 C 246.035156 58.105469 246.640625 57.839844 247.242188 57.570312 C 230.621094 44.992188 209.945312 37.5 187.5 37.5 C 145.925781 37.5 110.359375 63.105469 95.632812 99.390625 Z M 99.300781 103.355469 " fill-opacity="1" fill-rule="nonzero"/></g><g clip-path="url(#3ad0a5299d)"><path fill="#d57e7e" d="M 272.039062 84.992188 C 269.9375 86.296875 267.492188 87.566406 264.609375 88.746094 C 263.144531 89.347656 261.363281 90.183594 259.308594 91.140625 C 259.066406 91.253906 258.820312 91.371094 258.570312 91.484375 L 257.40625 107.082031 C 257.199219 114.617188 252.046875 121.496094 243.550781 125.535156 L 239.523438 127.449219 C 237.535156 128.4375 235.339844 128.957031 233.175781 128.957031 L 232.160156 128.957031 L 231.105469 128.753906 C 228.507812 128.21875 226.230469 126.984375 224.519531 125.175781 L 222.984375 123.554688 L 218.246094 109.105469 C 210.621094 112.367188 202.824219 115.667969 195.953125 118.566406 L 195.882812 119.539062 C 195.679688 124.902344 192.277344 129.640625 186.703125 132.292969 L 185.003906 133.097656 C 183.386719 133.890625 181.59375 134.308594 179.816406 134.308594 L 178.691406 134.285156 L 177.878906 134.125 C 175.539062 133.667969 173.46875 132.535156 171.894531 130.835938 L 170.410156 129.234375 L 169.390625 126.125 C 166.179688 125.621094 163.417969 124.273438 161.328125 122.246094 C 151.203125 126.460938 141.597656 128.621094 132.582031 128.621094 C 125.03125 128.621094 117.894531 127.140625 111.195312 124.175781 C 103.472656 120.757812 97.136719 115.707031 91.976562 110.125 C 89.636719 118.574219 88.363281 127.449219 88.363281 136.632812 C 88.363281 145.347656 89.5 153.789062 91.609375 161.839844 L 93.480469 162.957031 C 100.15625 166.945312 111.335938 169.234375 124.140625 169.234375 C 129.941406 169.234375 136.011719 168.773438 142.179688 167.867188 C 144.703125 167.496094 147.292969 167.042969 149.878906 166.511719 L 251.753906 145.582031 C 256.640625 144.578125 261.496094 144.070312 266.1875 144.070312 C 274.789062 144.070312 281.238281 145.664062 285.953125 148.125 C 286.386719 144.355469 286.632812 140.523438 286.632812 136.632812 C 286.632812 117.695312 281.257812 100.042969 272.039062 84.992188 Z M 272.039062 84.992188 " fill-opacity="1" fill-rule="nonzero"/></g><g fill="#5a803d" fill-opacity="1"><g transform="translate(15.595778, 298.563887)"><g><path d="M 25.421875 -0.171875 C 25.109375 -0.0859375 24.625 -0.00390625 23.96875 0.078125 C 23.3125 0.160156 22.664062 0.203125 22.03125 0.203125 C 21.382812 0.203125 20.816406 0.15625 20.328125 0.0625 C 19.835938 -0.03125 19.425781 -0.203125 19.09375 -0.453125 C 18.757812 -0.710938 18.507812 -1.0625 18.34375 -1.5 C 18.175781 -1.945312 18.09375 -2.535156 18.09375 -3.265625 L 18.09375 -9.796875 L 10.046875 -9.796875 L 10.046875 -0.171875 C 9.742188 -0.0859375 9.265625 -0.00390625 8.609375 0.078125 C 7.953125 0.160156 7.300781 0.203125 6.65625 0.203125 C 6.007812 0.203125 5.441406 0.15625 4.953125 0.0625 C 4.472656 -0.03125 4.0625 -0.203125 3.71875 -0.453125 C 3.382812 -0.710938 3.132812 -1.0625 2.96875 -1.5 C 2.800781 -1.945312 2.71875 -2.535156 2.71875 -3.265625 L 2.71875 -25.375 C 3.03125 -25.425781 3.519531 -25.5 4.1875 -25.59375 C 4.851562 -25.695312 5.492188 -25.75 6.109375 -25.75 C 6.753906 -25.75 7.320312 -25.695312 7.8125 -25.59375 C 8.300781 -25.5 8.710938 -25.328125 9.046875 -25.078125 C 9.378906 -24.828125 9.628906 -24.476562 9.796875 -24.03125 C 9.960938 -23.582031 10.046875 -23 10.046875 -22.28125 L 10.046875 -15.578125 L 18.09375 -15.578125 L 18.09375 -25.375 C 18.394531 -25.425781 18.878906 -25.5 19.546875 -25.59375 C 20.222656 -25.695312 20.867188 -25.75 21.484375 -25.75 C 22.117188 -25.75 22.679688 -25.695312 23.171875 -25.59375 C 23.660156 -25.5 24.070312 -25.328125 24.40625 -25.078125 C 24.75 -24.828125 25.003906 -24.476562 25.171875 -24.03125 C 25.335938 -23.582031 25.421875 -23 25.421875 -22.28125 Z M 25.421875 -0.171875 "/></g></g></g><g fill="#5a803d" fill-opacity="1"><g transform="translate(43.731193, 298.563887)"><g><path d="M 2.71875 -21.484375 C 2.71875 -22.679688 3.066406 -23.628906 3.765625 -24.328125 C 4.460938 -25.023438 5.410156 -25.375 6.609375 -25.375 L 20.4375 -25.375 C 20.632812 -25.070312 20.804688 -24.664062 20.953125 -24.15625 C 21.109375 -23.65625 21.1875 -23.128906 21.1875 -22.578125 C 21.1875 -21.515625 20.957031 -20.757812 20.5 -20.3125 C 20.039062 -19.863281 19.429688 -19.640625 18.671875 -19.640625 L 9.84375 -19.640625 L 9.84375 -15.75 L 19.265625 -15.75 C 19.460938 -15.4375 19.632812 -15.035156 19.78125 -14.546875 C 19.9375 -14.054688 20.015625 -13.535156 20.015625 -12.984375 C 20.015625 -11.921875 19.789062 -11.164062 19.34375 -10.71875 C 18.894531 -10.269531 18.296875 -10.046875 17.546875 -10.046875 L 9.84375 -10.046875 L 9.84375 -5.65625 L 20.609375 -5.65625 C 20.796875 -5.34375 20.96875 -4.9375 21.125 -4.4375 C 21.28125 -3.9375 21.359375 -3.40625 21.359375 -2.84375 C 21.359375 -1.78125 21.125 -1.019531 20.65625 -0.5625 C 20.195312 -0.101562 19.59375 0.125 18.84375 0.125 L 6.609375 0.125 C 5.410156 0.125 4.460938 -0.222656 3.765625 -0.921875 C 3.066406 -1.617188 2.71875 -2.566406 2.71875 -3.765625 Z M 2.71875 -21.484375 "/></g></g></g><g fill="#5a803d" fill-opacity="1"><g transform="translate(66.674945, 298.563887)"><g><path d="M 6.609375 0.125 C 5.410156 0.125 4.460938 -0.222656 3.765625 -0.921875 C 3.066406 -1.617188 2.71875 -2.566406 2.71875 -3.765625 L 2.71875 -25.421875 C 3.03125 -25.472656 3.519531 -25.546875 4.1875 -25.640625 C 4.851562 -25.742188 5.492188 -25.796875 6.109375 -25.796875 C 6.753906 -25.796875 7.320312 -25.742188 7.8125 -25.640625 C 8.300781 -25.546875 8.710938 -25.375 9.046875 -25.125 C 9.378906 -24.875 9.628906 -24.523438 9.796875 -24.078125 C 9.960938 -23.628906 10.046875 -23.039062 10.046875 -22.3125 L 10.046875 -5.78125 L 19.640625 -5.78125 C 19.835938 -5.46875 20.019531 -5.050781 20.1875 -4.53125 C 20.351562 -4.019531 20.4375 -3.488281 20.4375 -2.9375 C 20.4375 -1.8125 20.195312 -1.019531 19.71875 -0.5625 C 19.25 -0.101562 18.625 0.125 17.84375 0.125 Z M 6.609375 0.125 "/></g></g></g><g fill="#5a803d" fill-opacity="1"><g transform="translate(88.153317, 298.563887)"><g><path d="M 6.609375 0.125 C 5.410156 0.125 4.460938 -0.222656 3.765625 -0.921875 C 3.066406 -1.617188 2.71875 -2.566406 2.71875 -3.765625 L 2.71875 -25.421875 C 3.03125 -25.472656 3.519531 -25.546875 4.1875 -25.640625 C 4.851562 -25.742188 5.492188 -25.796875 6.109375 -25.796875 C 6.753906 -25.796875 7.320312 -25.742188 7.8125 -25.640625 C 8.300781 -25.546875 8.710938 -25.375 9.046875 -25.125 C 9.378906 -24.875 9.628906 -24.523438 9.796875 -24.078125 C 9.960938 -23.628906 10.046875 -23.039062 10.046875 -22.3125 L 10.046875 -5.78125 L 19.640625 -5.78125 C 19.835938 -5.46875 20.019531 -5.050781 20.1875 -4.53125 C 20.351562 -4.019531 20.4375 -3.488281 20.4375 -2.9375 C 20.4375 -1.8125 20.195312 -1.019531 19.71875 -0.5625 C 19.25 -0.101562 18.625 0.125 17.84375 0.125 Z M 6.609375 0.125 "/></g></g></g><g fill="#5a803d" fill-opacity="1"><g transform="translate(109.63169, 298.563887)"><g><path d="M 1.46875 -12.734375 C 1.46875 -14.910156 1.804688 -16.832031 2.484375 -18.5 C 3.171875 -20.175781 4.109375 -21.578125 5.296875 -22.703125 C 6.484375 -23.835938 7.878906 -24.695312 9.484375 -25.28125 C 11.085938 -25.875 12.828125 -26.171875 14.703125 -26.171875 C 16.566406 -26.171875 18.300781 -25.875 19.90625 -25.28125 C 21.507812 -24.695312 22.910156 -23.835938 24.109375 -22.703125 C 25.316406 -21.578125 26.257812 -20.175781 26.9375 -18.5 C 27.625 -16.832031 27.96875 -14.910156 27.96875 -12.734375 C 27.96875 -10.554688 27.632812 -8.617188 26.96875 -6.921875 C 26.300781 -5.234375 25.375 -3.820312 24.1875 -2.6875 C 23 -1.5625 21.59375 -0.707031 19.96875 -0.125 C 18.351562 0.457031 16.597656 0.75 14.703125 0.75 C 12.796875 0.75 11.035156 0.453125 9.421875 -0.140625 C 7.804688 -0.742188 6.410156 -1.617188 5.234375 -2.765625 C 4.054688 -3.910156 3.132812 -5.316406 2.46875 -6.984375 C 1.800781 -8.660156 1.46875 -10.578125 1.46875 -12.734375 Z M 9 -12.734375 C 9 -10.191406 9.515625 -8.289062 10.546875 -7.03125 C 11.585938 -5.78125 12.972656 -5.15625 14.703125 -5.15625 C 16.460938 -5.15625 17.859375 -5.78125 18.890625 -7.03125 C 19.921875 -8.289062 20.4375 -10.191406 20.4375 -12.734375 C 20.4375 -15.242188 19.925781 -17.125 18.90625 -18.375 C 17.882812 -19.632812 16.492188 -20.265625 14.734375 -20.265625 C 13.003906 -20.265625 11.613281 -19.644531 10.5625 -18.40625 C 9.519531 -17.164062 9 -15.273438 9 -12.734375 Z M 9 -12.734375 "/></g></g></g><g fill="#5a803d" fill-opacity="1"><g transform="translate(139.06502, 298.563887)"><g/></g></g><g fill="#5a803d" fill-opacity="1"><g transform="translate(147.43866, 298.563887)"><g><path d="M 14.453125 -19.171875 C 14.753906 -19.316406 15.234375 -19.476562 15.890625 -19.65625 C 16.546875 -19.84375 17.207031 -19.9375 17.875 -19.9375 C 19.050781 -19.9375 20.03125 -19.757812 20.8125 -19.40625 C 21.59375 -19.0625 22.066406 -18.550781 22.234375 -17.875 C 22.546875 -16.726562 22.832031 -15.660156 23.09375 -14.671875 C 23.351562 -13.679688 23.609375 -12.734375 23.859375 -11.828125 C 24.117188 -10.921875 24.363281 -10.019531 24.59375 -9.125 C 24.832031 -8.226562 25.066406 -7.296875 25.296875 -6.328125 L 25.5 -6.328125 C 25.75 -8.023438 25.972656 -9.648438 26.171875 -11.203125 C 26.367188 -12.753906 26.550781 -14.273438 26.71875 -15.765625 C 26.882812 -17.253906 27.050781 -18.734375 27.21875 -20.203125 C 27.382812 -21.671875 27.550781 -23.160156 27.71875 -24.671875 C 28.75 -25.253906 29.851562 -25.546875 31.03125 -25.546875 C 32.0625 -25.546875 32.953125 -25.320312 33.703125 -24.875 C 34.460938 -24.425781 34.84375 -23.671875 34.84375 -22.609375 C 34.84375 -21.992188 34.78125 -21.117188 34.65625 -19.984375 C 34.53125 -18.859375 34.359375 -17.597656 34.140625 -16.203125 C 33.929688 -14.804688 33.6875 -13.335938 33.40625 -11.796875 C 33.132812 -10.265625 32.84375 -8.800781 32.53125 -7.40625 C 32.226562 -6.007812 31.914062 -4.742188 31.59375 -3.609375 C 31.269531 -2.484375 30.96875 -1.613281 30.6875 -1 C 30.269531 -0.613281 29.585938 -0.296875 28.640625 -0.046875 C 27.691406 0.203125 26.71875 0.328125 25.71875 0.328125 C 24.40625 0.328125 23.289062 0.15625 22.375 -0.1875 C 21.46875 -0.539062 20.921875 -1.035156 20.734375 -1.671875 C 20.367188 -2.785156 19.972656 -4.109375 19.546875 -5.640625 C 19.128906 -7.179688 18.6875 -8.875 18.21875 -10.71875 C 17.820312 -8.90625 17.414062 -7.132812 17 -5.40625 C 16.582031 -3.675781 16.207031 -2.207031 15.875 -1 C 15.457031 -0.613281 14.828125 -0.296875 13.984375 -0.046875 C 13.148438 0.203125 12.226562 0.328125 11.21875 0.328125 C 9.96875 0.328125 8.832031 0.15625 7.8125 -0.1875 C 6.789062 -0.539062 6.128906 -1.035156 5.828125 -1.671875 C 5.566406 -2.171875 5.289062 -2.914062 5 -3.90625 C 4.707031 -4.90625 4.40625 -6.039062 4.09375 -7.3125 C 3.789062 -8.582031 3.476562 -9.957031 3.15625 -11.4375 C 2.84375 -12.914062 2.550781 -14.394531 2.28125 -15.875 C 2.019531 -17.351562 1.773438 -18.796875 1.546875 -20.203125 C 1.328125 -21.609375 1.160156 -22.898438 1.046875 -24.078125 C 1.441406 -24.441406 1.988281 -24.773438 2.6875 -25.078125 C 3.382812 -25.390625 4.132812 -25.546875 4.9375 -25.546875 C 6 -25.546875 6.867188 -25.3125 7.546875 -24.84375 C 8.234375 -24.382812 8.660156 -23.613281 8.828125 -22.53125 C 9.273438 -19.675781 9.644531 -17.300781 9.9375 -15.40625 C 10.238281 -13.507812 10.476562 -11.953125 10.65625 -10.734375 C 10.832031 -9.523438 10.960938 -8.582031 11.046875 -7.90625 C 11.140625 -7.238281 11.226562 -6.710938 11.3125 -6.328125 L 11.515625 -6.328125 C 11.765625 -7.441406 12 -8.472656 12.21875 -9.421875 C 12.445312 -10.367188 12.679688 -11.320312 12.921875 -12.28125 C 13.160156 -13.25 13.40625 -14.285156 13.65625 -15.390625 C 13.90625 -16.492188 14.171875 -17.753906 14.453125 -19.171875 Z M 14.453125 -19.171875 "/></g></g></g><g fill="#5a803d" fill-opacity="1"><g transform="translate(183.570898, 298.563887)"><g><path d="M 1.46875 -12.734375 C 1.46875 -14.910156 1.804688 -16.832031 2.484375 -18.5 C 3.171875 -20.175781 4.109375 -21.578125 5.296875 -22.703125 C 6.484375 -23.835938 7.878906 -24.695312 9.484375 -25.28125 C 11.085938 -25.875 12.828125 -26.171875 14.703125 -26.171875 C 16.566406 -26.171875 18.300781 -25.875 19.90625 -25.28125 C 21.507812 -24.695312 22.910156 -23.835938 24.109375 -22.703125 C 25.316406 -21.578125 26.257812 -20.175781 26.9375 -18.5 C 27.625 -16.832031 27.96875 -14.910156 27.96875 -12.734375 C 27.96875 -10.554688 27.632812 -8.617188 26.96875 -6.921875 C 26.300781 -5.234375 25.375 -3.820312 24.1875 -2.6875 C 23 -1.5625 21.59375 -0.707031 19.96875 -0.125 C 18.351562 0.457031 16.597656 0.75 14.703125 0.75 C 12.796875 0.75 11.035156 0.453125 9.421875 -0.140625 C 7.804688 -0.742188 6.410156 -1.617188 5.234375 -2.765625 C 4.054688 -3.910156 3.132812 -5.316406 2.46875 -6.984375 C 1.800781 -8.660156 1.46875 -10.578125 1.46875 -12.734375 Z M 9 -12.734375 C 9 -10.191406 9.515625 -8.289062 10.546875 -7.03125 C 11.585938 -5.78125 12.972656 -5.15625 14.703125 -5.15625 C 16.460938 -5.15625 17.859375 -5.78125 18.890625 -7.03125 C 19.921875 -8.289062 20.4375 -10.191406 20.4375 -12.734375 C 20.4375 -15.242188 19.925781 -17.125 18.90625 -18.375 C 17.882812 -19.632812 16.492188 -20.265625 14.734375 -20.265625 C 13.003906 -20.265625 11.613281 -19.644531 10.5625 -18.40625 C 9.519531 -17.164062 9 -15.273438 9 -12.734375 Z M 9 -12.734375 "/></g></g></g><g fill="#5a803d" fill-opacity="1"><g transform="translate(213.004228, 298.563887)"><g><path d="M 10.015625 -8.203125 L 10.015625 -0.171875 C 9.703125 -0.0859375 9.21875 -0.00390625 8.5625 0.078125 C 7.90625 0.160156 7.253906 0.203125 6.609375 0.203125 C 5.972656 0.203125 5.410156 0.15625 4.921875 0.0625 C 4.429688 -0.03125 4.023438 -0.203125 3.703125 -0.453125 C 3.378906 -0.710938 3.132812 -1.0625 2.96875 -1.5 C 2.800781 -1.945312 2.71875 -2.535156 2.71875 -3.265625 L 2.71875 -22.984375 C 2.71875 -23.578125 2.878906 -24.03125 3.203125 -24.34375 C 3.523438 -24.664062 3.960938 -24.925781 4.515625 -25.125 C 5.472656 -25.457031 6.578125 -25.703125 7.828125 -25.859375 C 9.085938 -26.015625 10.425781 -26.09375 11.84375 -26.09375 C 15.695312 -26.09375 18.597656 -25.28125 20.546875 -23.65625 C 22.503906 -22.039062 23.484375 -19.847656 23.484375 -17.078125 C 23.484375 -15.347656 23.035156 -13.867188 22.140625 -12.640625 C 21.253906 -11.410156 20.195312 -10.460938 18.96875 -9.796875 C 19.976562 -8.429688 20.96875 -7.144531 21.9375 -5.9375 C 22.914062 -4.738281 23.6875 -3.65625 24.25 -2.6875 C 23.96875 -1.707031 23.457031 -0.957031 22.71875 -0.4375 C 21.976562 0.0703125 21.144531 0.328125 20.21875 0.328125 C 19.601562 0.328125 19.070312 0.257812 18.625 0.125 C 18.1875 -0.0078125 17.796875 -0.203125 17.453125 -0.453125 C 17.117188 -0.710938 16.8125 -1.019531 16.53125 -1.375 C 16.257812 -1.738281 16 -2.128906 15.75 -2.546875 L 12.234375 -8.203125 Z M 12.640625 -13.78125 C 13.703125 -13.78125 14.539062 -14.050781 15.15625 -14.59375 C 15.769531 -15.132812 16.078125 -15.9375 16.078125 -17 C 16.078125 -18.0625 15.734375 -18.863281 15.046875 -19.40625 C 14.367188 -19.945312 13.289062 -20.21875 11.8125 -20.21875 C 11.394531 -20.21875 11.054688 -20.203125 10.796875 -20.171875 C 10.546875 -20.148438 10.269531 -20.113281 9.96875 -20.0625 L 9.96875 -13.78125 Z M 12.640625 -13.78125 "/></g></g></g><g fill="#5a803d" fill-opacity="1"><g transform="translate(238.501945, 298.563887)"><g><path d="M 6.609375 0.125 C 5.410156 0.125 4.460938 -0.222656 3.765625 -0.921875 C 3.066406 -1.617188 2.71875 -2.566406 2.71875 -3.765625 L 2.71875 -25.421875 C 3.03125 -25.472656 3.519531 -25.546875 4.1875 -25.640625 C 4.851562 -25.742188 5.492188 -25.796875 6.109375 -25.796875 C 6.753906 -25.796875 7.320312 -25.742188 7.8125 -25.640625 C 8.300781 -25.546875 8.710938 -25.375 9.046875 -25.125 C 9.378906 -24.875 9.628906 -24.523438 9.796875 -24.078125 C 9.960938 -23.628906 10.046875 -23.039062 10.046875 -22.3125 L 10.046875 -5.78125 L 19.640625 -5.78125 C 19.835938 -5.46875 20.019531 -5.050781 20.1875 -4.53125 C 20.351562 -4.019531 20.4375 -3.488281 20.4375 -2.9375 C 20.4375 -1.8125 20.195312 -1.019531 19.71875 -0.5625 C 19.25 -0.101562 18.625 0.125 17.84375 0.125 Z M 6.609375 0.125 "/></g></g></g><g fill="#5a803d" fill-opacity="1"><g transform="translate(259.980317, 298.563887)"><g><path d="M 10.015625 -5.4375 C 10.316406 -5.382812 10.691406 -5.335938 11.140625 -5.296875 C 11.585938 -5.253906 12.003906 -5.234375 12.390625 -5.234375 C 13.335938 -5.234375 14.207031 -5.375 15 -5.65625 C 15.800781 -5.9375 16.488281 -6.367188 17.0625 -6.953125 C 17.632812 -7.535156 18.082031 -8.296875 18.40625 -9.234375 C 18.726562 -10.171875 18.890625 -11.296875 18.890625 -12.609375 C 18.890625 -15.117188 18.300781 -17.007812 17.125 -18.28125 C 15.957031 -19.550781 14.394531 -20.1875 12.4375 -20.1875 C 12.039062 -20.1875 11.640625 -20.171875 11.234375 -20.140625 C 10.835938 -20.109375 10.429688 -20.066406 10.015625 -20.015625 Z M 12.359375 0.671875 C 11.878906 0.671875 11.332031 0.65625 10.71875 0.625 C 10.101562 0.601562 9.46875 0.546875 8.8125 0.453125 C 8.15625 0.367188 7.5 0.265625 6.84375 0.140625 C 6.1875 0.015625 5.582031 -0.15625 5.03125 -0.375 C 3.488281 -0.957031 2.71875 -1.976562 2.71875 -3.4375 L 2.71875 -22.984375 C 2.71875 -23.578125 2.878906 -24.03125 3.203125 -24.34375 C 3.523438 -24.664062 3.960938 -24.925781 4.515625 -25.125 C 5.722656 -25.519531 6.992188 -25.78125 8.328125 -25.90625 C 9.671875 -26.03125 10.875 -26.09375 11.9375 -26.09375 C 14.113281 -26.09375 16.085938 -25.828125 17.859375 -25.296875 C 19.628906 -24.765625 21.148438 -23.945312 22.421875 -22.84375 C 23.691406 -21.738281 24.675781 -20.347656 25.375 -18.671875 C 26.070312 -16.992188 26.421875 -15.015625 26.421875 -12.734375 C 26.421875 -10.492188 26.082031 -8.539062 25.40625 -6.875 C 24.738281 -5.21875 23.785156 -3.820312 22.546875 -2.6875 C 21.304688 -1.5625 19.820312 -0.71875 18.09375 -0.15625 C 16.363281 0.394531 14.453125 0.671875 12.359375 0.671875 Z M 12.359375 0.671875 "/></g></g></g><g fill="#5a803d" fill-opacity="1"><g transform="translate(287.864513, 298.563887)"><g><path d="M 2.71875 -21.484375 C 2.71875 -22.679688 3.066406 -23.628906 3.765625 -24.328125 C 4.460938 -25.023438 5.410156 -25.375 6.609375 -25.375 L 20.4375 -25.375 C 20.632812 -25.070312 20.804688 -24.664062 20.953125 -24.15625 C 21.109375 -23.65625 21.1875 -23.128906 21.1875 -22.578125 C 21.1875 -21.515625 20.957031 -20.757812 20.5 -20.3125 C 20.039062 -19.863281 19.429688 -19.640625 18.671875 -19.640625 L 9.84375 -19.640625 L 9.84375 -15.75 L 19.265625 -15.75 C 19.460938 -15.4375 19.632812 -15.035156 19.78125 -14.546875 C 19.9375 -14.054688 20.015625 -13.535156 20.015625 -12.984375 C 20.015625 -11.921875 19.789062 -11.164062 19.34375 -10.71875 C 18.894531 -10.269531 18.296875 -10.046875 17.546875 -10.046875 L 9.84375 -10.046875 L 9.84375 -5.65625 L 20.609375 -5.65625 C 20.796875 -5.34375 20.96875 -4.9375 21.125 -4.4375 C 21.28125 -3.9375 21.359375 -3.40625 21.359375 -2.84375 C 21.359375 -1.78125 21.125 -1.019531 20.65625 -0.5625 C 20.195312 -0.101562 19.59375 0.125 18.84375 0.125 L 6.609375 0.125 C 5.410156 0.125 4.460938 -0.222656 3.765625 -0.921875 C 3.066406 -1.617188 2.71875 -2.566406 2.71875 -3.765625 Z M 2.71875 -21.484375 "/></g></g></g><g fill="#5a803d" fill-opacity="1"><g transform="translate(310.808265, 298.563887)"><g><path d="M 10.015625 -8.203125 L 10.015625 -0.171875 C 9.703125 -0.0859375 9.21875 -0.00390625 8.5625 0.078125 C 7.90625 0.160156 7.253906 0.203125 6.609375 0.203125 C 5.972656 0.203125 5.410156 0.15625 4.921875 0.0625 C 4.429688 -0.03125 4.023438 -0.203125 3.703125 -0.453125 C 3.378906 -0.710938 3.132812 -1.0625 2.96875 -1.5 C 2.800781 -1.945312 2.71875 -2.535156 2.71875 -3.265625 L 2.71875 -22.984375 C 2.71875 -23.578125 2.878906 -24.03125 3.203125 -24.34375 C 3.523438 -24.664062 3.960938 -24.925781 4.515625 -25.125 C 5.472656 -25.457031 6.578125 -25.703125 7.828125 -25.859375 C 9.085938 -26.015625 10.425781 -26.09375 11.84375 -26.09375 C 15.695312 -26.09375 18.597656 -25.28125 20.546875 -23.65625 C 22.503906 -22.039062 23.484375 -19.847656 23.484375 -17.078125 C 23.484375 -15.347656 23.035156 -13.867188 22.140625 -12.640625 C 21.253906 -11.410156 20.195312 -10.460938 18.96875 -9.796875 C 19.976562 -8.429688 20.96875 -7.144531 21.9375 -5.9375 C 22.914062 -4.738281 23.6875 -3.65625 24.25 -2.6875 C 23.96875 -1.707031 23.457031 -0.957031 22.71875 -0.4375 C 21.976562 0.0703125 21.144531 0.328125 20.21875 0.328125 C 19.601562 0.328125 19.070312 0.257812 18.625 0.125 C 18.1875 -0.0078125 17.796875 -0.203125 17.453125 -0.453125 C 17.117188 -0.710938 16.8125 -1.019531 16.53125 -1.375 C 16.257812 -1.738281 16 -2.128906 15.75 -2.546875 L 12.234375 -8.203125 Z M 12.640625 -13.78125 C 13.703125 -13.78125 14.539062 -14.050781 15.15625 -14.59375 C 15.769531 -15.132812 16.078125 -15.9375 16.078125 -17 C 16.078125 -18.0625 15.734375 -18.863281 15.046875 -19.40625 C 14.367188 -19.945312 13.289062 -20.21875 11.8125 -20.21875 C 11.394531 -20.21875 11.054688 -20.203125 10.796875 -20.171875 C 10.546875 -20.148438 10.269531 -20.113281 9.96875 -20.0625 L 9.96875 -13.78125 Z M 12.640625 -13.78125 "/></g></g></g><g fill="#5a803d" fill-opacity="1"><g transform="translate(336.305982, 298.563887)"><g><path d="M 9.921875 -10.09375 C 8.691406 -10.507812 7.570312 -10.929688 6.5625 -11.359375 C 5.5625 -11.796875 4.695312 -12.320312 3.96875 -12.9375 C 3.25 -13.550781 2.6875 -14.285156 2.28125 -15.140625 C 1.875 -15.992188 1.671875 -17.03125 1.671875 -18.25 C 1.671875 -20.625 2.582031 -22.523438 4.40625 -23.953125 C 6.238281 -25.378906 8.804688 -26.09375 12.109375 -26.09375 C 13.304688 -26.09375 14.421875 -26.003906 15.453125 -25.828125 C 16.484375 -25.660156 17.367188 -25.398438 18.109375 -25.046875 C 18.847656 -24.703125 19.425781 -24.257812 19.84375 -23.71875 C 20.269531 -23.175781 20.484375 -22.539062 20.484375 -21.8125 C 20.484375 -21.09375 20.3125 -20.472656 19.96875 -19.953125 C 19.632812 -19.429688 19.234375 -18.992188 18.765625 -18.640625 C 18.148438 -19.023438 17.320312 -19.363281 16.28125 -19.65625 C 15.25 -19.945312 14.117188 -20.09375 12.890625 -20.09375 C 11.640625 -20.09375 10.71875 -19.914062 10.125 -19.5625 C 9.539062 -19.21875 9.25 -18.78125 9.25 -18.25 C 9.25 -17.832031 9.429688 -17.488281 9.796875 -17.21875 C 10.160156 -16.957031 10.707031 -16.71875 11.4375 -16.5 L 13.65625 -15.78125 C 16.28125 -14.945312 18.296875 -13.878906 19.703125 -12.578125 C 21.109375 -11.285156 21.8125 -9.519531 21.8125 -7.28125 C 21.8125 -4.914062 20.875 -3 19 -1.53125 C 17.132812 -0.0625 14.390625 0.671875 10.765625 0.671875 C 9.472656 0.671875 8.273438 0.566406 7.171875 0.359375 C 6.078125 0.148438 5.117188 -0.15625 4.296875 -0.5625 C 3.472656 -0.96875 2.828125 -1.46875 2.359375 -2.0625 C 1.898438 -2.664062 1.671875 -3.359375 1.671875 -4.140625 C 1.671875 -4.953125 1.90625 -5.644531 2.375 -6.21875 C 2.851562 -6.789062 3.375 -7.226562 3.9375 -7.53125 C 4.71875 -6.914062 5.671875 -6.382812 6.796875 -5.9375 C 7.929688 -5.5 9.171875 -5.28125 10.515625 -5.28125 C 11.878906 -5.28125 12.835938 -5.488281 13.390625 -5.90625 C 13.953125 -6.320312 14.234375 -6.8125 14.234375 -7.375 C 14.234375 -7.925781 14.007812 -8.347656 13.5625 -8.640625 C 13.113281 -8.941406 12.488281 -9.226562 11.6875 -9.5 Z M 9.921875 -10.09375 "/></g></g></g><g fill="#5a803d" fill-opacity="1"><g transform="translate(109.882485, 346.745543)"><g><path d="M 10.296875 -16.578125 C 8.296875 -16.578125 6.71875 -15.910156 5.5625 -14.578125 C 4.40625 -13.242188 3.828125 -11.421875 3.828125 -9.109375 C 3.828125 -6.722656 4.382812 -4.878906 5.5 -3.578125 C 6.613281 -2.273438 8.203125 -1.625 10.265625 -1.625 C 11.535156 -1.625 12.988281 -1.851562 14.625 -2.3125 L 14.625 -0.453125 C 13.351562 0.015625 11.796875 0.25 9.953125 0.25 C 7.265625 0.25 5.191406 -0.5625 3.734375 -2.1875 C 2.285156 -3.8125 1.5625 -6.125 1.5625 -9.125 C 1.5625 -11 1.910156 -12.640625 2.609375 -14.046875 C 3.304688 -15.460938 4.316406 -16.550781 5.640625 -17.3125 C 6.960938 -18.082031 8.523438 -18.46875 10.328125 -18.46875 C 12.234375 -18.46875 13.898438 -18.117188 15.328125 -17.421875 L 14.4375 -15.59375 C 13.050781 -16.25 11.671875 -16.578125 10.296875 -16.578125 Z M 10.296875 -16.578125 "/></g></g></g><g fill="#5a803d" fill-opacity="1"><g transform="translate(125.962006, 346.745543)"><g><path d="M 18.296875 -9.125 C 18.296875 -6.207031 17.5625 -3.914062 16.09375 -2.25 C 14.625 -0.582031 12.578125 0.25 9.953125 0.25 C 7.265625 0.25 5.191406 -0.566406 3.734375 -2.203125 C 2.285156 -3.847656 1.5625 -6.164062 1.5625 -9.15625 C 1.5625 -12.113281 2.289062 -14.40625 3.75 -16.03125 C 5.207031 -17.664062 7.28125 -18.484375 9.96875 -18.484375 C 12.582031 -18.484375 14.625 -17.65625 16.09375 -16 C 17.5625 -14.34375 18.296875 -12.050781 18.296875 -9.125 Z M 3.796875 -9.125 C 3.796875 -6.65625 4.320312 -4.785156 5.375 -3.515625 C 6.425781 -2.242188 7.953125 -1.609375 9.953125 -1.609375 C 11.960938 -1.609375 13.484375 -2.242188 14.515625 -3.515625 C 15.546875 -4.785156 16.0625 -6.65625 16.0625 -9.125 C 16.0625 -11.570312 15.546875 -13.425781 14.515625 -14.6875 C 13.492188 -15.957031 11.976562 -16.59375 9.96875 -16.59375 C 7.957031 -16.59375 6.425781 -15.957031 5.375 -14.6875 C 4.320312 -13.414062 3.796875 -11.5625 3.796875 -9.125 Z M 3.796875 -9.125 "/></g></g></g><g fill="#5a803d" fill-opacity="1"><g transform="translate(145.812503, 346.745543)"><g><path d="M 10.5625 0 L 4.390625 -16.140625 L 4.28125 -16.140625 C 4.394531 -14.859375 4.453125 -13.335938 4.453125 -11.578125 L 4.453125 0 L 2.5 0 L 2.5 -18.203125 L 5.6875 -18.203125 L 11.453125 -3.1875 L 11.5625 -3.1875 L 17.375 -18.203125 L 20.53125 -18.203125 L 20.53125 0 L 18.421875 0 L 18.421875 -11.734375 C 18.421875 -13.078125 18.476562 -14.535156 18.59375 -16.109375 L 18.484375 -16.109375 L 12.265625 0 Z M 10.5625 0 "/></g></g></g><g fill="#5a803d" fill-opacity="1"><g transform="translate(168.824144, 346.745543)"><g><path d="M 10.5625 0 L 4.390625 -16.140625 L 4.28125 -16.140625 C 4.394531 -14.859375 4.453125 -13.335938 4.453125 -11.578125 L 4.453125 0 L 2.5 0 L 2.5 -18.203125 L 5.6875 -18.203125 L 11.453125 -3.1875 L 11.5625 -3.1875 L 17.375 -18.203125 L 20.53125 -18.203125 L 20.53125 0 L 18.421875 0 L 18.421875 -11.734375 C 18.421875 -13.078125 18.476562 -14.535156 18.59375 -16.109375 L 18.484375 -16.109375 L 12.265625 0 Z M 10.5625 0 "/></g></g></g><g fill="#5a803d" fill-opacity="1"><g transform="translate(191.835785, 346.745543)"><g><path d="M 16.25 -18.203125 L 16.25 -6.421875 C 16.25 -4.347656 15.617188 -2.71875 14.359375 -1.53125 C 13.109375 -0.34375 11.390625 0.25 9.203125 0.25 C 7.015625 0.25 5.316406 -0.347656 4.109375 -1.546875 C 2.910156 -2.742188 2.3125 -4.382812 2.3125 -6.46875 L 2.3125 -18.203125 L 4.4375 -18.203125 L 4.4375 -6.328125 C 4.4375 -4.804688 4.847656 -3.640625 5.671875 -2.828125 C 6.503906 -2.015625 7.726562 -1.609375 9.34375 -1.609375 C 10.875 -1.609375 12.050781 -2.015625 12.875 -2.828125 C 13.707031 -3.648438 14.125 -4.820312 14.125 -6.34375 L 14.125 -18.203125 Z M 16.25 -18.203125 "/></g></g></g><g fill="#5a803d" fill-opacity="1"><g transform="translate(210.391955, 346.745543)"><g><path d="M 16.71875 0 L 14.3125 0 L 4.359375 -15.28125 L 4.265625 -15.28125 C 4.390625 -13.488281 4.453125 -11.84375 4.453125 -10.34375 L 4.453125 0 L 2.5 0 L 2.5 -18.203125 L 4.890625 -18.203125 L 14.8125 -2.984375 L 14.921875 -2.984375 C 14.898438 -3.210938 14.859375 -3.929688 14.796875 -5.140625 C 14.742188 -6.359375 14.726562 -7.226562 14.75 -7.75 L 14.75 -18.203125 L 16.71875 -18.203125 Z M 16.71875 0 "/></g></g></g><g fill="#5a803d" fill-opacity="1"><g transform="translate(229.607729, 346.745543)"><g><path d="M 2.5 0 L 2.5 -18.203125 L 4.625 -18.203125 L 4.625 0 Z M 2.5 0 "/></g></g></g><g fill="#5a803d" fill-opacity="1"><g transform="translate(236.714086, 346.745543)"><g><path d="M 8.109375 0 L 5.984375 0 L 5.984375 -16.328125 L 0.21875 -16.328125 L 0.21875 -18.203125 L 13.875 -18.203125 L 13.875 -16.328125 L 8.109375 -16.328125 Z M 8.109375 0 "/></g></g></g><g fill="#5a803d" fill-opacity="1"><g transform="translate(250.814785, 346.745543)"><g><path d="M 7.140625 -9.109375 L 11.984375 -18.203125 L 14.28125 -18.203125 L 8.203125 -7.0625 L 8.203125 0 L 6.0625 0 L 6.0625 -6.953125 L 0 -18.203125 L 2.3125 -18.203125 Z M 7.140625 -9.109375 "/></g></g></g></svg>